<svg t="1643188747044" class="icon" viewBox="0 0 1024 1024" version="1.1" xmlns="http://www.w3.org/2000/svg" p-id="3987"
     width="200" height="200">
  <path
    d="M871.749818 368.593455c0 28.066909-3.351273 55.714909-9.867636 82.571636a49.664 49.664 0 1 1-96.488727-23.505455 249.018182 249.018182 0 0 0-29.60291-188.974545c-9.960727-16.197818-11.776-32.814545-10.007272-52.689455 0.930909-10.146909 2.327273-17.873455 5.957818-35.746909a35.048727 35.048727 0 0 0-5.306182 0.605091l-1.210182 0.232727c-48.221091 7.912727-63.581091 8.890182-87.970909-3.584a246.970182 246.970182 0 0 0-113.105454-27.182545c-38.306909 0-75.310545 8.657455-108.916364 25.134545-16.290909 7.912727-32.302545 8.471273-51.758545 5.585455a337.687273 337.687273 0 0 1-35.700364-7.819636l-1.024-0.232728-4.096-1.024 0.651636 8.005819 0.093091 0.744727c4.189091 47.429818 3.863273 64.093091-10.845091 87.970909a246.830545 246.830545 0 0 0-36.631272 129.861818c0 21.410909 2.699636 42.356364 7.912727 62.603636a49.664 49.664 0 0 1-96.116364 24.948364 348.066909 348.066909 0 0 1-11.124363-87.505454c0-65.070545 17.966545-127.627636 51.386181-181.946182-2.001455 3.258182-1.954909 2.978909-1.861818 0a252.834909 252.834909 0 0 0-1.629091-27.136l-0.093091-0.744728c-1.908364-21.783273-2.466909-32.116364-1.582545-45.056 1.722182-24.296727 9.029818-44.776727 27.368727-60.276363 17.826909-15.034182 37.422545-17.687273 60.881455-14.941091 11.403636 1.303273 20.898909 3.397818 40.029091 8.192l0.930909 0.279273c14.661818 3.723636 20.573091 5.026909 26.065454 5.864727 0.698182 0.093091 0.558545 0.139636-1.070545 0.884364A342.900364 342.900364 0 0 1 524.194909 20.945455a346.298182 346.298182 0 0 1 158.394182 38.167272c-4.096-2.141091-3.863273-2.094545-1.070546-2.280727 5.957818-0.372364 12.194909-1.256727 27.508364-3.770182l1.256727-0.232727c20.759273-3.397818 31.185455-4.747636 43.659637-4.980364 23.924364-0.465455 44.078545 4.421818 60.881454 20.573091 17.501091 16.849455 21.876364 37.143273 20.48 61.067637-0.651636 11.496727-2.187636 20.619636-6.144 40.02909l-0.139636 0.558546a261.12 261.12 0 0 0-4.235636 23.877818 346.158545 346.158545 0 0 1 46.964363 174.545455z m-347.554909 427.659636a46.545455 46.545455 0 0 1 0-93.090909h208.523636a46.545455 46.545455 0 1 1 0 93.090909h-208.523636z"
    fill="#D8AA86" opacity=".48" p-id="3988"></path>
  <path
    d="M714.658909 492.823273a49.664 49.664 0 0 1 0-99.328h194.839273a93.090909 93.090909 0 0 1 93.090909 93.090909v263.68a248.273455 248.273455 0 0 1-248.273455 248.273454H294.074182a248.273455 248.273455 0 0 1-248.273455-248.273454V443.112727a49.664 49.664 0 0 1 99.281455 0v307.106909a148.945455 148.945455 0 0 0 148.945454 148.945455h460.288a148.945455 148.945455 0 0 0 148.945455-148.945455v-210.897454a46.545455 46.545455 0 0 0-46.545455-46.545455h-142.056727z"
    fill="#D8AA86" p-id="3989"></path>
</svg>
