<svg t="1642576888684" class="icon" viewBox="0 0 1164 1024" version="1.1" xmlns="http://www.w3.org/2000/svg" p-id="6096"
     width="200" height="200">
  <path
    d="M429.562323 291.256185a42.675234 42.675234 0 1 0 21.349039 36.963881 42.663811 42.663811 0 0 0-21.349039-36.963881zM756.4802 285.533409a42.686656 42.686656 0 1 0 42.686656 42.686657 42.698079 42.698079 0 0 0-42.686656-42.686657z"
    fill="#5ec231" p-id="6097"></path>
  <path
    d="M1164.796288 420.092899v-1.370725a1.64487 1.64487 0 0 0-0.102805-0.67394 3.655266 3.655266 0 0 1-0.148495-0.639671c0-0.205609-0.091382-0.365527-0.137072-0.536868s-0.148495-0.445486-0.228455-0.662517l-0.182763-0.502599a6.259643 6.259643 0 0 0-0.262722-0.639671l-0.239877-0.502599-0.29699-0.559713-0.331259-0.559713-0.29699-0.42264-0.456909-0.616826-0.251299-0.319836-0.571135-0.639672-0.239877-0.239876-0.662517-0.593981-0.262723-0.217032-0.708207-0.525444-0.342682-0.205609-0.71963-0.42264-0.411218-0.228454-0.479753-0.2513-180.170359-82.243491C965.972648 83.374339 937.016085 0 891.028267 0c-20.035428 0-55.777079 12.564978-135.598956 119.230217-109.852174-38.448832-236.278696-38.448832-346.108025 0C329.430873 12.519287 293.700645 0.011423 273.653794 0.011423c-45.964973 0-74.887268 82.791781-86.252861 326.518082L7.756018 408.601655H7.653214l-0.2513 0.114227-0.182763 0.091382-0.84528 0.445486-0.388372 0.239877-0.628249 0.388372-0.491177 0.376949-0.456908 0.365527-0.525445 0.468331-0.365526 0.365526-0.479754 0.536867-0.331258 0.411218-0.399795 0.536867-0.331259 0.491177-0.29699 0.514021-0.319836 0.582558-0.217031 0.468331-0.285568 0.662517-0.182763 0.456909a2.981327 2.981327 0 0 1-0.217032 0.685362c-0.068536 0.228454-0.102804 0.342681-0.148495 0.536867l-0.137072 0.639672a2.124624 2.124624 0 0 1-0.12565 0.685362c-0.102804 0.239877 0 0.354104 0 0.525445v456.816902A148.163934 148.163934 0 0 0 148.038284 1023.988577h868.776833a148.163934 148.163934 0 0 0 148.004016-147.98117V420.367044a1.142271 1.142271 0 0 0-0.022845-0.274145z m-980.376682-12.485019h-113.0848l114.798206-52.475916q-0.936662 25.438369-1.713406 52.475916z m568.188296 388.417732l-146.210651 120.463869a44.365794 44.365794 0 0 1-57.490484-0.902394l-142.315508-125.078643a129.179395 129.179395 0 1 1 176.492247-188.269058 129.179395 129.179395 0 1 1 169.524396 193.786226z m-542.578587-388.440578q1.085157-37.363675 2.627223-71.003547a12.816277 12.816277 0 0 0 0.114227-2.387346c11.73112-252.099146 42.481048-308.641546 60.940142-308.641545 10.474622 0 43.223524 11.354171 120.829396 116.568726l5.711354 7.756018 9.023938-3.346853c109.429534-40.664837 236.8841-40.710528 346.450706 0l9.012516 3.346853 5.711354-7.756018c77.503068-105.203132 110.240546-116.511612 120.738014-116.511613 18.424827 0 49.11764 56.553823 60.951565 308.778618a12.679205 12.679205 0 0 0 0.102804 2.078933q1.576334 33.719831 2.638645 71.174888z m770.313098 0q-0.776744-27.037548-1.770519-52.475916l114.741093 52.475916z"
    fill="#5ec231" p-id="6098"></path>
</svg>
