<svg t="1642056193592" class="icon" viewBox="0 0 1117 1024" version="1.1" xmlns="http://www.w3.org/2000/svg"
     p-id="18120" width="200" height="200">
  <path
    d="M1082.875929 470.772302v393.73262a126.127907 126.127907 0 0 1-126.127907 126.127907H159.495078a126.127907 126.127907 0 0 1-126.127907-126.127907v-393.73262h1049.508758m33.367171-33.367171H0v427.099791A159.495078 159.495078 0 0 0 159.495078 1024h797.252944a159.495078 159.495078 0 0 0 159.495078-159.495078v-427.099791z"
    p-id="18121" fill="#db639b"></path>
  <path
    d="M947.405214 443.856117l-33.367172-2.446926C921.37882 334.411796 881.78311 51.90308 850.862865 33.439912c-25.803946 0-83.862824 64.287416-114.783069 108.332082l-7.340777 10.232599-12.012182-4.226508a452.236393 452.236393 0 0 0-322.549321 3.114269l-14.23666 6.673434-7.563226-13.569316c-27.138633-47.158935-79.19142-114.338173-106.107604-109.889217-41.820188 7.563225-64.064969 215.10703-59.393565 402.85298H173.50929C171.50726 339.305647 171.729708 17.646117 260.486383 0.740084c51.830339-9.565256 111.223904 76.07715 133.468685 113.225934A486.715804 486.715804 0 0 1 715.837046 111.963988c24.914154-33.367171 88.979123-114.560621 139.02988-111.223904 14.904003 1.112239 46.046696 3.114269 74.297567 193.752041a1471.714697 1471.714697 0 0 1 18.240721 249.363992z"
    p-id="18122" fill="#db639b"></path>
  <path
    d="M0.066734 437.182683l187.590237-94.896235 15.059716 29.763517L15.126451 466.9462zM1101.205628 467.213137l-187.590236-94.851745 15.059716-29.785762 187.590237 94.87399z"
    p-id="18123" fill="#db639b"></path>
  <path
    d="M335.673742 355.989233m-40.930397 0a40.930397 40.930397 0 1 0 81.860794 0 40.930397 40.930397 0 1 0-81.860794 0Z"
    p-id="18124" fill="#db639b"></path>
  <path
    d="M781.236701 355.989233m-40.930396 0a40.930397 40.930397 0 1 0 81.860793 0 40.930397 40.930397 0 1 0-81.860793 0Z"
    p-id="18125" fill="#db639b"></path>
  <path
    d="M184.854128 651.62237h25.35905l74.964912 190.637771h-23.579468l-20.465198-53.387474H153.711435L133.468685 842.260141H109.889217z m-24.246811 119.009577h73.630225l-36.036545-95.43011h-1.112239zM304.531049 651.62237h68.291477a86.309749 86.309749 0 0 1 68.291477 26.248841 101.881096 101.881096 0 0 1 22.244781 69.181268 98.321931 98.321931 0 0 1-22.244781 69.181268 88.979123 88.979123 0 0 1-68.95882 26.026394h-66.734343z m22.244781 19.130511V823.796973h40.707949a73.630224 73.630224 0 0 0 56.056847-19.797855 81.19345 81.19345 0 0 0 17.795825-56.501743 84.975063 84.975063 0 0 0-16.683586-57.169087 71.405746 71.405746 0 0 0-55.167056-19.352959zM643.763956 676.536524A105.662709 105.662709 0 0 1 667.343424 747.274927a105.217813 105.217813 0 0 1-23.579468 70.293507A85.419958 85.419958 0 0 1 575.917375 846.041754a84.752615 84.752615 0 0 1-66.734343-28.47332 102.548439 102.548439 0 0 1-23.579467-70.293507 103.215783 103.215783 0 0 1 23.579467-70.515955 84.752615 84.752615 0 0 1 66.734343-28.695767 84.752615 84.752615 0 0 1 67.846581 28.473319z m-119.232025 13.791764a88.979123 88.979123 0 0 0-17.795825 57.169087 87.199541 87.199541 0 0 0 17.795825 56.946639 62.95273 62.95273 0 0 0 51.385444 22.24478 64.064969 64.064969 0 0 0 51.607891-22.24478 86.754645 86.754645 0 0 0 17.795825-57.391535 87.644436 87.644436 0 0 0-17.795825-57.83643 63.175177 63.175177 0 0 0-51.385444-22.244781A63.175177 63.175177 0 0 0 524.531931 690.328288zM697.818773 651.62237h77.856733c44.489562 0 65.622103 18.908064 65.622103 56.279295s-22.244781 56.501743-66.734342 56.501743h-54.944609v77.856733h-22.24478z m22.244781 19.130511v74.742464h54.722161a52.72013 52.72013 0 0 0 34.034514-9.342808 35.146754 35.146754 0 0 0 11.122391-28.250872 32.032484 32.032484 0 0 0-11.344838-27.805976 50.7181 50.7181 0 0 0-33.812067-9.342808zM854.42203 651.62237h155.713465v19.130511h-66.734342v171.50726h-22.244781v-171.50726h-66.734342z"
    p-id="18126" fill="#db639b"></path>
</svg>
