<svg t="1639979444821" class="icon" viewBox="0 0 1024 1024" version="1.1" xmlns="http://www.w3.org/2000/svg" p-id="2140" width="200" height="200"><path d="M516.9 787.9c-139.5 0-205.7-131.8-208.4-137.4-4.2-8.7-0.7-19.1 8-23.4 8.7-4.3 19.1-0.7 23.4 7.9 0.6 1.2 59.6 117.8 177 117.8 118.9 0 198.1-118.5 198.9-119.7 5.3-8.1 16.1-10.3 24.2-5 8.1 5.3 10.3 16.1 5.1 24.2-3.7 5.6-90.1 135.6-228.2 135.6z" fill="#ffffff" p-id="2141"></path><path d="M386.7 515.2m-46.9 0a46.9 46.9 0 1 0 93.8 0 46.9 46.9 0 1 0-93.8 0Z" fill="#ffffff" p-id="2142"></path><path d="M673.1 515.2m-46.9 0a46.9 46.9 0 1 0 93.8 0 46.9 46.9 0 1 0-93.8 0Z" fill="#ffffff" p-id="2143"></path><path d="M660.5 342.9c-51 0-96.7-28.7-98.9-30.1-8.1-5.2-10.5-16-5.3-24.1s16-10.6 24.1-5.4c0.5 0.3 53 33.1 99.3 22.6 20-4.5 35.8-16.3 48.2-36 11.9-18.9 15.2-37.1 10.1-55.7-13.5-48.9-79.6-83.1-80.3-83.5-8.6-4.4-12-14.9-7.7-23.5 4.4-8.6 14.9-12 23.5-7.7 3.3 1.7 80.5 41.4 98.2 105.2 7.8 28.2 3 56.4-14.2 83.7-17.4 27.7-41.1 45-70.3 51.5-8.9 2.1-17.9 3-26.7 3z" fill="#ffffff" p-id="2144"></path><path d="M893.1 501.3c-13-8-10.6-19.9-10.6-31.8 0 0 0-1.3-0.2-2.7-6.6-43.1-21-98.9-51.5-152.5-0.1-0.2-0.1-0.3-0.2-0.5-0.1-0.1-0.2-0.2-0.3-0.4-0.1-0.2-0.2-0.3-0.3-0.5l-0.1 0.1c-4.8-7.7-14.7-10.5-22.8-6.2-8.4 4.6-11.5 15-6.9 23.4 26.1 45.7 40.2 95.2 47.3 140.5 0 25.9 2.2 31.5 2.7 33.2 0 0-1.4 15 13.5 22 2.3 0.8 57 19.5 49.5 85.8-6.8 60.5-61.8 67.8-64.1 68l-8.1 0.9-7 10.5c-110.3 166.9-234.2 202-318.8 202-194.9 0-305.8-196.6-306.9-198.6l-5-9H193c-10.1 0-81.8-15.9-83.4-80-1.3-50.7 18.8-65 35-76.4 4.5-3.2 8.7-6.1 12.2-9.7 16.4-16.4 19.9-44 20.5-50.7 63.9-325.6 363.4-297.4 380.2-295.6 8.8 1.4 16.9 3.2 25.2 5l0.1-0.3c0.5 0.1 0.9 0.5 1.4 0.6 9.5 2 18.9-4 20.9-13.5s-4-18.7-13.4-20.8h-0.1c-9.4-2-19-4-29-5.5l-0.6-0.1c-3.5-0.4-348.8-36.5-419 324.6l-0.3 2.1c-0.5 6.5-3.7 22.9-10.5 29.6-1.9 1.9-4.7 3.8-7.7 5.9-18 12.8-51.6 36.6-49.8 105.9 1.9 73.8 69.9 107.6 107.9 113.2 24.4 40.1 138.5 208.5 332.7 208.5 92.6 0 227.7-37.4 346.1-215 30.8-6.6 79.3-32.8 86.6-97.5 7-61.3-26.8-97.2-54.9-114.5z" fill="#ffffff" p-id="2145"></path></svg>
