<svg t="1644991840081" class="icon" viewBox="0 0 1024 1024" version="1.1" xmlns="http://www.w3.org/2000/svg" p-id="9493" data-spm-anchor-id="a313x.7781069.0.i14" width="200" height="200"><path d="M913.92 176.128c0-5.632-1.536-11.264-4.608-16.896-9.216-15.872-29.696-20.992-45.568-11.776-6.144 3.584-154.112 87.04-292.352-50.688-32.768-32.768-86.528-32.768-119.808 0-138.752 138.24-285.696 55.296-291.84 51.712-15.872-9.216-36.352-4.096-45.568 11.776-3.072 5.12-4.608 11.264-4.608 16.896v375.296c0 88.576 57.856 179.2 171.52 269.312 86.016 68.096 180.224 116.224 206.848 129.024 7.68 3.584 15.36 5.632 23.552 5.632 8.192 0 15.872-2.048 23.552-5.632 26.624-13.312 120.832-60.928 206.848-129.024 113.664-90.112 171.52-180.736 171.52-269.312l0.512-376.32zM512 888.32c-53.76-27.136-335.36-175.104-335.36-335.872V227.328c18.944 6.144 43.008 11.776 69.632 14.336 8.704 1.024 17.92 1.024 27.136 1.024 62.976 0 145.92-19.456 225.28-98.816 7.168-7.168 18.432-7.168 25.6 0C615.424 234.496 711.68 246.784 776.704 240.64c27.136-2.56 51.2-8.192 70.144-14.336v326.144c0.512 160.768-281.088 309.248-334.848 335.872z" fill="#e0620d" p-id="9494"></path><path d="M701.952 358.912l-237.568 237.568-101.376-101.888c-12.8-12.8-34.304-12.8-47.104 0-12.8 12.8-12.8 34.304 0 47.104l124.928 124.928c6.656 6.656 14.848 9.728 23.552 9.728s16.896-3.072 23.552-9.728l261.12-261.12c12.8-12.8 12.8-34.304 0-47.104-13.312-12.8-34.304-12.8-47.104 0.512z" fill="#f4ea2a" p-id="9495" data-spm-anchor-id="a313x.7781069.0.i13" class="selected"></path></svg>
