<?xml version="1.0" encoding="utf-8"?>
<!-- Generator: Adobe Illustrator 16.2.0, SVG Export Plug-In . SVG Version: 6.00 Build 0)  -->
<!DOCTYPE svg PUBLIC "-//W3C//DTD SVG 1.1//EN" "http://www.w3.org/Graphics/SVG/1.1/DTD/svg11.dtd">
<svg version="1.1" id="图层_1" xmlns="http://www.w3.org/2000/svg" xmlns:xlink="http://www.w3.org/1999/xlink" x="0px"
     y="0px"
     width="750px" height="1125px" viewBox="0 0 750 1125" enable-background="new 0 0 750 1125" xml:space="preserve">
<g>
	<path fill="#EB9A42"
        d="M376.604,613.645c1.09,0.24,2.137,0.488,3.119,0.746C378.74,614.133,377.693,613.885,376.604,613.645"/>
  <path fill="#EB9A42"
        d="M379.864,614.428c1.019,0.271,1.985,0.549,2.868,0.838C381.85,614.977,380.883,614.699,379.864,614.428"/>
  <path fill="#EB9A42" d="M376.408,613.6c-17.227-3.756-46.196-5.328-51.019-5.569c-0.146,5.11,0.643,10.291,0.643,14.678
		c0,1.941,2.359,5.452,5.956,9.688c10.094,0.416,28.611,1.057,42.179,0.803C372.675,627.305,374.132,620.102,376.408,613.6"/>
  <path fill="#EB9A42" d="M173.609,692.449c3.027,10.093,5.692,21.008,6.646,30.563c0.15,1.484,0.321,2.818,0.501,4.093
		c7.924-1.71,16.643-2.36,22.115-2.602c0.962-7.443,1.458-16.483,1.458-25.563c0-1.796,0.048-3.441,0.117-5.019
		c-10.902-0.245-19.883-1.67-25.528-1.67C176.92,692.253,175.182,692.32,173.609,692.449"/>
  <path fill="#EB9A42"
        d="M194.154,742.038c-1.243,0.284-2.562,0.675-3.877,0.786C191.593,742.715,192.912,742.322,194.154,742.038"
  />
  <path fill="#FCB25E"
        d="M277.961,669.062c-6.266,3.639-13.445,7.809-21.475,12.493C264.512,676.876,271.695,672.7,277.961,669.062"
  />
  <path fill="#FCB25E" d="M209.68,672.193c0,0-4.478,4.528-5.233,21.729c9.245,0.206,19.867-0.441,31.019-3.526
		c7.34-7.958,13.152-22.532,17.428-33.278L209.68,672.193z"/>
  <path fill="#FCB25E"
        d="M340.564,584.937c-0.614,0.494-1.225,0.982-1.816,1.461C339.339,585.919,339.95,585.431,340.564,584.937"/>
  <path fill="#FCB25E" d="M314.498,611.173l-9.864-9.863c0,0,5.35-5.349,24.074-18.725c13.14-9.382,23.62-10.86,28.718-10.911
		c-5.339,4.31-11.195,8.751-16.289,12.81c10.817-8.61,25.139-18.994,30.369-25.971c6.853-9.132,7.847-24.09,6.332-33.269
		c-1.497,0.732-2.899,1.17-3.658,1.17c-2.674,0-8.024,0-10.698-8.025c-0.708-2.125-1.024-3.854-1.133-5.278
		c-5.611,0.606-15.266,5.101-20.265,2.604c-5.351-2.674-21.399-16.049-32.099-16.049h-13.375c0,0-8.023-16.049-16.048-16.049
		s-18.723-5.349-26.748,2.676c-8.025,8.024-8.025,8.024-2.676,10.699c5.35,2.674,10.701,2.674,16.05,2.674s10.698,5.35,10.698,5.35
		s-5.349,0-10.698,8.025c-5.349-2.676-10.7-5.35-18.724-2.676c-8.024,2.676-10.7,2.676-21.398,10.7
		c-10.699,8.024-21.399,16.05-13.374,21.399c8.023,5.349,13.374,5.349,24.072,2.674c10.7-2.674,21.398-8.023,21.398-8.023
		s-5.349,10.699-8.025,29.423c-2.674,18.724-2.674,24.072-8.025,24.072c-1.315,0-5.404,0-10.999,0.082
		c0.195,3.397-2.374,8.395-2.374,15.967c0,13.375-2.674,16.05-13.374,18.724c-10.7,2.675-32.098-5.349-45.472-13.374
		c-6.06-3.636-8.257-8.36-8.869-12.452c0.072-0.02,0.141-0.038,0.216-0.059c-5.589,1.519-11.623,3.129-17.133,5.167
		c8.902,11.302,4.385,18.054,1.712,26.068c-2.675,8.024,8.024,13.375,13.374,18.724c5.35,5.35-26.747,16.05-32.098,13.374
		c-5.351-2.675-10.7-16.049-13.375-21.399c-2.673-5.348-8.024,0-13.374-10.698c-1.187-2.377-1.827-4.745-2.133-7.005
		c-2.908-2.483-5.173-5.468-5.891-9.044c-2.675-13.374,0-32.099-8.023-32.099c-8.024,0-18.724,21.399-16.049,34.774
		c2.674,13.373,0,21.397,18.724,29.422c18.723,8.024,29.422,8.024,29.422,8.024s0,18.725,5.349,29.424
		c1.937,7.747-10.135,32.297-15.938,48.316c7.492,0.595,17.314,2.398,24.221,7.422c7.751-12.569,17.461-30.658,23.816-37.015
		c6.826-6.825,9.804-9.772,18.764-10.504c-5.449-18.154-12.077-33.631-12.077-33.631L314.498,611.173z M366.154,547.813
		c8.024-2.675,8.024-8.025,8.024-8.025c2.676,5.35-2.674,8.025-5.349,10.701c-2.676,2.674-8.024,2.674-8.024,2.674l-2.675-2.674
		L366.154,547.813z M315.333,518.389c10.699-2.674,16.048,8.025,10.699,13.375c-5.35,5.351-10.699-2.675-13.374-5.35
		S309.536,519.84,315.333,518.389 M259.162,595.961c8.025,0,8.025,8.023,8.025,13.373s-8.025,2.674-13.374,2.674
		c-5.35,0-8.025-2.674-8.025-8.023C245.788,598.634,259.162,595.961,259.162,595.961"/>
  <path fill="#FCB25E"
        d="M337.578,587.364c-0.402,0.334-0.819,0.674-1.206,0.999C336.759,588.038,337.176,587.698,337.578,587.364"
  />
  <path fill="#FCB25E" d="M295.832,642.14l11.404,10.036c0.018-0.01,0.073-0.045,0.073-0.045s22.835,21.19,37.934,30.476
		c0.983-3.319,2.591-7.2,4.864-11.752c2.975-5.947,6.313-9.313,9.341-11.208c-8.396-7.667-20.36-18.883-27.459-27.251
		c-4.461-0.184-7.293-0.325-7.293-0.325L295.832,642.14z"/>
  <path fill="#FCB25E"
        d="M290.364,661.885c-2.351,1.358-4.94,2.852-7.745,4.479C285.424,664.736,288.01,663.243,290.364,661.885"/>
  <path fill="#FCB25E" d="M314.498,611.173l-152.967,47.646c0,0,6.63,15.477,12.081,33.631c1.572-0.129,3.308-0.196,5.306-0.196
		c5.643,0,14.63,1.425,25.531,1.672c0.755-17.203,5.229-21.731,5.229-21.731l43.216-15.075c0.313-0.792,0.622-1.565,0.921-2.313
		c5.351-13.37,32.095-21.396,32.095-21.396l9.921,8.729l28.867-10.069c0,0,2.829,0.142,7.29,0.325
		c-3.597-4.235-5.956-7.746-5.956-9.688L314.498,611.173z"/>
  <path fill="#976026" d="M170.894,612.008c13.374,8.025,34.772,16.049,45.472,13.374c10.699-2.674,13.374-5.349,13.374-18.724
		c0-7.572,2.568-12.569,2.374-15.967h-0.03c-0.968,0.013-1.996,0.031-3.051,0.05c-0.211,0.005-0.424,0.006-0.639,0.013
		c-1.022,0.018-2.07,0.039-3.157,0.065c-0.062,0.002-0.121,0.002-0.182,0.005c-1.123,0.026-2.287,0.055-3.466,0.088
		c-0.271,0.009-0.546,0.018-0.818,0.025c-1.088,0.03-2.191,0.065-3.312,0.104c-0.129,0.005-0.251,0.008-0.38,0.014
		c-1.214,0.042-2.45,0.088-3.691,0.138c-0.292,0.013-0.583,0.026-0.875,0.037c-1.151,0.05-2.307,0.102-3.466,0.158
		c-0.137,0.005-0.271,0.012-0.408,0.02c-1.249,0.063-2.501,0.131-3.75,0.203c-0.307,0.016-0.615,0.036-0.923,0.056
		c-1.162,0.066-2.321,0.141-3.475,0.222c-0.117,0.008-0.24,0.015-0.359,0.024c-1.231,0.085-2.446,0.178-3.649,0.275
		c-0.302,0.025-0.603,0.051-0.902,0.076c-1.128,0.095-2.244,0.192-3.335,0.3c-0.098,0.012-0.195,0.02-0.289,0.026
		c-1.153,0.116-2.268,0.238-3.365,0.365c-0.281,0.031-0.559,0.066-0.836,0.1c-1.046,0.127-2.072,0.258-3.053,0.4
		c-0.054,0.005-0.113,0.013-0.169,0.021c-1.015,0.147-1.98,0.301-2.915,0.461c-0.236,0.044-0.471,0.086-0.701,0.127
		c-0.901,0.162-1.774,0.333-2.581,0.511c-0.025,0.007-0.048,0.009-0.071,0.015c-0.817,0.182-1.567,0.377-2.279,0.577
		c-0.176,0.049-0.347,0.1-0.518,0.152c-0.685,0.205-1.336,0.416-1.898,0.643c-0.822,0.328-1.693,0.645-2.608,0.955
		c-0.447,0.153-0.932,0.3-1.402,0.45c-0.479,0.157-0.944,0.31-1.444,0.461c-0.65,0.198-1.332,0.393-2.012,0.589
		c-0.342,0.098-0.676,0.2-1.027,0.297c-0.926,0.262-1.875,0.521-2.835,0.784c-0.076,0.021-0.145,0.039-0.216,0.059
		C162.637,603.647,164.834,608.372,170.894,612.008"/>
  <path fill="#976026"
        d="M99.213,623.728c6.915,5.899,17.491,8.84,20.173,9.514C116.643,632.545,106.092,629.597,99.213,623.728"/>
  <path fill="#976026" d="M114.722,641.431c2.675,5.351,8.024,18.725,13.375,21.399c5.351,2.676,37.448-8.024,32.098-13.374
		c-5.35-5.349-16.049-10.699-13.374-18.724c2.672-8.015,7.19-14.767-1.712-26.068c-0.756,0.279-1.538,0.54-2.27,0.839
		c-0.286,0.114-0.571,0.224-0.849,0.341c-0.62,0.265-1.221,0.542-1.818,0.821c-0.372,0.175-0.747,0.348-1.109,0.529
		c-0.526,0.262-1.031,0.534-1.533,0.807c-0.403,0.225-0.8,0.453-1.188,0.686c-0.442,0.265-0.874,0.538-1.29,0.814
		c-0.41,0.274-0.797,0.559-1.182,0.849c-0.362,0.269-0.72,0.542-1.059,0.826c-0.393,0.331-0.757,0.685-1.115,1.034
		c-0.279,0.271-0.569,0.539-0.824,0.822c-0.381,0.424-0.712,0.874-1.042,1.321c-0.179,0.246-0.385,0.479-0.548,0.734
		c-0.46,0.724-0.867,1.477-1.185,2.271c-5.351,13.373-8.024,16.048-8.024,16.048s-0.059-0.013-0.166-0.04
		c-0.064-0.015-0.14-0.031-0.266-0.064c-0.077-0.017-0.153-0.036-0.253-0.062c-2.683-0.67-13.259-3.614-20.173-9.514
		c0.307,2.26,0.946,4.628,2.133,7.005C106.698,641.431,112.049,636.083,114.722,641.431"/>
  <path fill="#976026" d="M145.078,604.621c-0.762,0.282-1.502,0.581-2.241,0.882c0.733-0.299,1.514-0.56,2.269-0.839
		C145.096,604.647,145.089,604.636,145.078,604.621"/>
  <path fill="#976026" d="M253.813,612.008c5.349,0,13.374,2.676,13.374-2.674s0-13.373-8.025-13.373c0,0-13.375,2.673-13.375,8.023
		C245.788,609.334,248.463,612.008,253.813,612.008"/>
  <path fill="#FFFFFF" d="M328.708,582.585c-18.724,13.376-24.074,18.725-24.074,18.725l9.866,9.866l10.195-3.18
		c0,0,0.246,0.011,0.694,0.034c0.125-4.242,0.894-8.433,3.318-12.069c0.3-0.45,0.702-0.943,1.144-1.456
		c0.1-0.119,0.209-0.244,0.319-0.365c0.47-0.523,0.982-1.064,1.572-1.64c0.026-0.024,0.053-0.048,0.079-0.074
		c0.59-0.578,1.253-1.187,1.949-1.81c0.127-0.116,0.253-0.228,0.386-0.343c0.69-0.616,1.438-1.257,2.216-1.91
		c0.387-0.325,0.804-0.665,1.206-0.999c0.386-0.321,0.771-0.639,1.17-0.967c0.591-0.479,1.202-0.967,1.816-1.461
		c0.192-0.152,0.378-0.304,0.572-0.453c5.094-4.059,10.95-8.5,16.289-12.81C352.327,571.725,341.847,573.203,328.708,582.585"/>
  <path fill="#FFFFFF"
        d="M336.372,588.363c-0.778,0.653-1.523,1.294-2.221,1.91C334.849,589.657,335.594,589.017,336.372,588.363"/>
  <path fill="#FFFFFF"
        d="M338.752,586.397c-0.405,0.328-0.784,0.646-1.174,0.967C337.968,587.043,338.352,586.726,338.752,586.397"
  />
  <path fill="#FFFFFF"
        d="M341.136,584.483c-0.194,0.149-0.38,0.301-0.57,0.453C340.752,584.784,340.942,584.633,341.136,584.483"/>
  <path fill="#FFFFFF" d="M314.498,611.173l11.535,11.535c0-4.387-0.789-9.567-0.643-14.678c-0.449-0.023-0.691-0.031-0.691-0.031
		L314.498,611.173z"/>
  <path fill="#FFFFFF" d="M307.236,652.176L307.236,652.176c-0.099,0.058-0.465,0.266-1.108,0.632
		C306.761,652.443,307.137,652.233,307.236,652.176"/>
  <path fill="#FFFFFF" d="M252.894,657.118c-4.279,10.746-10.088,25.32-17.428,33.278c1.592-0.441,3.193-0.933,4.806-1.477
		c0.199-0.066,0.396-0.129,0.592-0.198c1.544-0.532,3.096-1.122,4.647-1.759c0.259-0.106,0.518-0.214,0.773-0.324
		c1.552-0.651,3.103-1.352,4.666-2.12c0.214-0.104,0.433-0.22,0.647-0.329c1.628-0.816,3.261-1.683,4.89-2.635
		c8.03-4.685,15.208-8.854,21.475-12.493c0.034-0.016,0.066-0.035,0.103-0.055c1.524-0.888,2.998-1.742,4.413-2.562
		c0.051-0.029,0.095-0.055,0.142-0.081c2.809-1.628,5.391-3.121,7.745-4.479c0.216-0.126,0.418-0.239,0.629-0.366
		c1.021-0.59,2.011-1.16,2.941-1.698c0.002,0,0.006-0.002,0.01-0.002c2.153-1.244,4.06-2.342,5.711-3.293
		c0.06-0.034,0.115-0.063,0.173-0.1c0.747-0.428,1.444-0.831,2.078-1.196c0.12-0.066,0.215-0.123,0.329-0.188
		c0.534-0.307,1.037-0.596,1.489-0.854c0.352-0.203,0.648-0.373,0.95-0.546c0.11-0.063,0.236-0.137,0.34-0.195
		c0.408-0.233,0.754-0.433,1.051-0.603c0.021-0.015,0.047-0.025,0.062-0.036c0.643-0.366,1.009-0.577,1.108-0.632l-11.404-10.036
		L252.894,657.118z"/>
  <path fill="#FFFFFF" d="M235.451,690.409c1.597-0.44,3.205-0.945,4.82-1.489c-1.609,0.54-3.213,1.035-4.806,1.477
		C235.46,690.398,235.457,690.405,235.451,690.409"/>
  <path fill="#FFFFFF"
        d="M299.656,656.525c-1.651,0.951-3.558,2.049-5.712,3.293C296.101,658.572,298.005,657.477,299.656,656.525"
  />
  <path fill="#FFFFFF" d="M285.91,633.407c0,0-26.748,8.023-32.097,21.398c-0.295,0.747-0.607,1.521-0.919,2.313l42.938-14.979
		L285.91,633.407z"/>
  <path fill="#FCB25E" d="M374.179,526.414c0.759,0,2.161-0.438,3.658-1.17l-0.006-0.005c-0.123-0.755-0.263-1.474-0.417-2.151
		c-0.011-0.035-0.016-0.072-0.027-0.111c-0.158-0.69-0.338-1.333-0.532-1.913c-2.676-8.024-8.024-8.024-13.374-8.024
		c-0.349,0-0.734,0.026-1.133,0.07c0.109,1.424,0.426,3.153,1.133,5.278C366.154,526.414,371.505,526.414,374.179,526.414"/>
  <g opacity="0.42">
		<g>
			<defs>
				<rect id="SVGID_1_" x="362.35" y="513.043" width="15.485" height="13.374"/>
			</defs>
      <clipPath id="SVGID_2_">
				<use xlink:href="#SVGID_1_" overflow="visible"/>
			</clipPath>
      <path clip-path="url(#SVGID_2_)" fill="#1C1B1C" d="M374.179,526.414c0.759,0,2.161-0.438,3.658-1.17l-0.006-0.005
				c-0.123-0.755-0.263-1.474-0.417-2.151c-0.011-0.035-0.016-0.072-0.027-0.111c-0.158-0.69-0.338-1.333-0.532-1.913
				c-2.676-8.024-8.024-8.024-13.374-8.024c-0.349,0-0.734,0.026-1.133,0.07c0.109,1.424,0.426,3.153,1.133,5.278
				C366.154,526.414,371.505,526.414,374.179,526.414"/>
		</g>
	</g>
  <path fill="#1C1B1C" d="M326.033,531.764c5.349-5.35,0-16.049-10.699-13.375c-5.798,1.451-5.35,5.35-2.675,8.025
		S320.683,537.114,326.033,531.764"/>
  <path fill="#A46A2E" d="M368.83,550.489c2.675-2.676,8.024-5.351,5.349-10.701c0,0,0,5.35-8.024,8.025l-8.023,2.676l2.675,2.674
		C360.806,553.163,366.154,553.163,368.83,550.489"/>
  <path fill="#FEC483" d="M106.804,732.551c-0.263,0.724-0.508,1.426-0.74,2.11c-0.043,0.127-0.084,0.248-0.127,0.368
		c-0.189,0.561-0.366,1.106-0.534,1.637c-0.054,0.173-0.105,0.341-0.158,0.509c-0.143,0.467-0.278,0.923-0.402,1.363
		c-0.053,0.19-0.104,0.378-0.155,0.565c-0.107,0.399-0.207,0.785-0.294,1.163c-0.045,0.191-0.091,0.382-0.132,0.566
		c-0.074,0.35-0.136,0.676-0.192,1.001c-0.032,0.18-0.067,0.363-0.094,0.535c-0.046,0.307-0.072,0.592-0.1,0.874
		c-0.013,0.154-0.034,0.317-0.039,0.465c-0.017,0.281-0.008,0.535,0.003,0.782c0.005,0.114-0.003,0.241,0.008,0.349
		c0.03,0.338,0.087,0.648,0.173,0.912c2.675,8.023,13.374,13.374,21.399,2.674c0.459-0.612,0.938-1.288,1.431-1.996
		c0.225-0.326,0.46-0.678,0.689-1.022c0.257-0.378,0.511-0.755,0.773-1.155c0.324-0.496,0.656-1.008,0.99-1.536
		c0.151-0.238,0.304-0.478,0.457-0.722c0.415-0.654,0.835-1.323,1.263-2.015l0.002-0.011c-6.904-5.023-16.726-6.827-24.221-7.422
		C106.807,732.549,106.804,732.551,106.804,732.551"/>
  <path fill="#FEC483" d="M350.106,670.854c-2.273,4.552-3.881,8.433-4.864,11.752c0.135,0.083,0.283,0.183,0.413,0.265
		c0.422,0.256,0.839,0.505,1.248,0.741c0.214,0.126,0.424,0.238,0.631,0.356c0.33,0.183,0.653,0.361,0.967,0.528
		c0.22,0.119,0.433,0.227,0.647,0.332c0.293,0.153,0.588,0.299,0.876,0.437c0.206,0.1,0.409,0.19,0.613,0.283
		c0.28,0.125,0.554,0.242,0.821,0.348c0.188,0.081,0.377,0.156,0.559,0.227c0.269,0.1,0.527,0.185,0.778,0.269
		c0.168,0.053,0.335,0.11,0.495,0.155c0.269,0.076,0.52,0.131,0.773,0.182c0.122,0.026,0.252,0.063,0.373,0.082
		c0.36,0.061,0.705,0.094,1.018,0.094c10.699,0,16.049-16.05,13.375-18.724c-0.089-0.089-0.225-0.221-0.396-0.382
		c-0.052-0.049-0.128-0.117-0.189-0.176c-0.135-0.123-0.271-0.251-0.438-0.402c-0.1-0.089-0.209-0.191-0.319-0.29
		c-0.176-0.16-0.355-0.323-0.559-0.508c-0.131-0.117-0.269-0.241-0.408-0.366c-0.209-0.19-0.421-0.382-0.653-0.593
		c-0.382-0.346-0.8-0.721-1.241-1.118c-0.094-0.086-0.178-0.16-0.268-0.247c-0.372-0.334-0.758-0.681-1.158-1.043
		c-0.139-0.126-0.27-0.243-0.41-0.374c-0.457-0.411-0.931-0.84-1.421-1.285c-0.052-0.048-0.099-0.091-0.154-0.139
		c-0.57-0.517-1.154-1.052-1.768-1.611C356.42,661.541,353.082,664.907,350.106,670.854"/>
  <path fill="#FEC483" d="M345.237,682.619c0.144,0.091,0.279,0.166,0.423,0.252c-0.138-0.084-0.282-0.182-0.417-0.265
		C345.243,682.611,345.237,682.618,345.237,682.619"/>
  <path fill="#F3B16A" d="M388.893,618.695c-0.164-0.25-0.391-0.498-0.658-0.741c-0.066-0.054-0.158-0.108-0.225-0.165
		c-0.227-0.185-0.457-0.368-0.734-0.546c-0.076-0.049-0.18-0.094-0.266-0.144c-0.303-0.181-0.615-0.362-0.973-0.538
		c-0.076-0.032-0.166-0.066-0.244-0.104c-0.393-0.186-0.799-0.368-1.254-0.546c-0.063-0.025-0.139-0.047-0.203-0.073
		c-0.48-0.188-0.988-0.371-1.531-0.551c-0.025-0.009-0.047-0.014-0.072-0.021c-0.883-0.289-1.85-0.566-2.868-0.838
		c-0.048-0.013-0.095-0.026-0.142-0.037c-0.982-0.258-2.029-0.506-3.119-0.746c-0.068-0.013-0.127-0.03-0.193-0.045
		c-2.278,6.502-3.738,13.705-2.247,19.599c0.778-0.013,1.552-0.028,2.294-0.05c0.047-0.003,0.088-0.003,0.135-0.003
		c1.495-0.044,2.903-0.099,4.218-0.169c0.072-0.003,0.15-0.006,0.216-0.011c0.575-0.031,1.124-0.065,1.659-0.104
		c0.104-0.006,0.219-0.013,0.318-0.021c0.469-0.033,0.898-0.07,1.332-0.109c0.154-0.015,0.318-0.027,0.467-0.04
		c0.406-0.038,0.768-0.084,1.137-0.127c0.146-0.02,0.313-0.032,0.449-0.05c0.326-0.042,0.611-0.094,0.902-0.136
		c0.152-0.026,0.326-0.047,0.473-0.074c0.414-0.072,0.795-0.151,1.129-0.234C399.59,629.395,394.24,626.721,388.893,618.695"/>
  <path fill="#F3B16A" d="M376.41,613.598c0,0.002,0,0.002,0,0.002c0.066,0.015,0.125,0.032,0.193,0.045
		C376.535,613.632,376.479,613.612,376.41,613.598"/>
  <path fill="#F3B16A"
        d="M374.164,633.202c0.785-0.015,1.547-0.032,2.294-0.057c-0.743,0.024-1.516,0.04-2.294,0.053V633.202z"/>
  <path fill="#F3B16A"
        d="M379.723,614.391c0.049,0.011,0.094,0.024,0.142,0.037C379.816,614.415,379.775,614.401,379.723,614.391"/>
  <path fill="#F3B16A" d="M181.037,728.995c0.006,0.029,0.011,0.065,0.017,0.095c0.097,0.588,0.2,1.146,0.305,1.688
		c0.008,0.039,0.013,0.08,0.021,0.118c0.105,0.532,0.215,1.038,0.324,1.525l0.026,0.124c0.113,0.479,0.225,0.938,0.344,1.376
		c0.011,0.04,0.021,0.079,0.028,0.115c0.118,0.438,0.241,0.854,0.365,1.253c0.01,0.026,0.018,0.058,0.027,0.091
		c0.127,0.399,0.257,0.779,0.387,1.138c0.006,0.019,0.01,0.034,0.019,0.051c0.136,0.371,0.273,0.72,0.416,1.053l0.004,0.007
		c1.971,4.589,4.462,5.404,6.961,5.195c1.312-0.111,2.631-0.502,3.875-0.786c0.017-0.004,0.033-0.004,0.046-0.011
		c0.146-0.031,0.285-0.063,0.428-0.091c0.043-0.008,0.088-0.02,0.13-0.026c0.127-0.022,0.25-0.043,0.373-0.064
		c0.056-0.008,0.109-0.019,0.163-0.025c0.117-0.017,0.233-0.031,0.35-0.044c0.053-0.005,0.11-0.013,0.167-0.021
		c0.166-0.01,0.331-0.019,0.495-0.019c0.306,0,0.6-0.089,0.886-0.221c0.045-0.023,0.09-0.037,0.136-0.063
		c0.267-0.146,0.528-0.356,0.778-0.615c0.056-0.055,0.113-0.117,0.167-0.178c0.247-0.276,0.484-0.595,0.712-0.97
		c0.05-0.084,0.101-0.18,0.149-0.268c0.2-0.354,0.399-0.745,0.585-1.17c0.053-0.12,0.107-0.232,0.159-0.355
		c0.186-0.443,0.363-0.935,0.537-1.438c0.069-0.205,0.135-0.405,0.203-0.617c0.166-0.52,0.321-1.067,0.477-1.643
		c0.077-0.294,0.153-0.596,0.227-0.905c0.112-0.456,0.22-0.93,0.324-1.412c0.107-0.491,0.209-0.991,0.307-1.505
		c0.071-0.359,0.137-0.728,0.203-1.1c0.123-0.703,0.244-1.429,0.358-2.173c0.051-0.329,0.1-0.657,0.148-0.994
		c0.077-0.519,0.143-1.072,0.212-1.607c-5.472,0.241-14.191,0.892-22.113,2.602C180.85,727.747,180.938,728.401,181.037,728.995"/>
  <path fill="#F3B16A"
        d="M180.748,727.105c0.094,0.657,0.189,1.285,0.289,1.89c-0.099-0.594-0.187-1.248-0.28-1.89H180.748z"/>
  <path fill="#F3B16A" d="M202.883,724.504h-0.01c-0.069,0.538-0.138,1.089-0.211,1.607
		C202.736,725.585,202.814,725.05,202.883,724.504"/>
  <path fill="#986026" d="M393.096,622.183c-0.943-1.229-2.021-2.622-3.086-4.221c-0.23-0.349-0.529-0.684-0.883-1.001
		c-0.074-0.064-0.158-0.128-0.277-0.211c-0.264-0.216-0.533-0.428-0.852-0.626l-0.297-0.169c-0.342-0.203-0.684-0.402-1.066-0.586
		c-0.012-0.007-0.262-0.116-0.27-0.119c-0.414-0.196-0.85-0.392-1.543-0.655c-0.506-0.199-1.035-0.392-1.678-0.601
		c-0.881-0.287-1.845-0.563-2.982-0.87l-0.006-0.002c-0.027-0.008-0.058-0.017-0.073-0.022c-0.011,0-0.011,0-0.021,0
		c-0.904-0.242-1.896-0.474-3.069-0.736c-0.034-0.006-0.065-0.015-0.1-0.023c-0.003-0.002-0.005-0.002-0.011-0.002
		c0,0-0.006,0-0.006-0.002c-0.004,0-0.006-0.004-0.012-0.004c-0.011-0.002-0.021-0.002-0.031-0.004
		c-0.063-0.014-0.11-0.026-0.176-0.039c-0.002-0.003-0.006-0.003-0.01-0.003s-0.008-0.003-0.014-0.003
		c-0.005-0.002-0.01-0.002-0.01-0.002c-16.028-3.482-41.959-5.091-49.793-5.515c0.272-4.133,1.207-7.391,2.988-10.061
		c0.274-0.411,0.644-0.861,1.046-1.326l0.298-0.345c0.453-0.501,0.945-1.024,1.59-1.653c0.58-0.563,1.228-1.156,2.033-1.878
		l0.253-0.228c0.01-0.014,0.026-0.025,0.042-0.037c0.643-0.571,1.337-1.161,2.059-1.771l0.094-0.08l0.002-0.007l0.326-0.269
		l2.034-1.678l2.371-1.908c0.309-0.243,0.632-0.497,0.943-0.743c1.946-1.538,3.973-3.113,6.041-4.727
		c9.519-7.399,19.36-15.052,23.625-20.741c6.893-9.19,8.245-24.216,6.579-34.29v-0.002c-0.132-0.787-0.277-1.531-0.466-2.349
		c-0.169-0.734-0.358-1.417-0.564-2.033c-2.978-8.938-9.174-8.938-14.644-8.938c-0.381,0-0.799,0.028-1.228,0.072
		c-0.016,0-0.031,0-0.05,0.004c-1.94,0.21-4.263,0.838-6.718,1.503c-3.339,0.907-6.791,1.845-9.635,1.845
		c-1.294,0-2.362-0.207-3.169-0.608c-1.332-0.667-3.508-2.129-6.024-3.822c-7.322-4.924-18.387-12.369-26.672-12.369h-12.562
		c-1.753-3.281-9.067-16.048-16.861-16.048c-2.092,0-4.425-0.394-6.892-0.805c-2.757-0.465-5.604-0.943-8.488-0.943
		c-5.047,0-9.075,1.576-12.313,4.813c-5.303,5.303-7.089,7.09-6.76,9.108c0.266,1.648,1.836,2.435,4.436,3.733
		c5.631,2.816,11.229,2.816,16.644,2.816c2.931,0,5.963,1.891,7.852,3.338c-2.137,0.836-5.208,2.721-8.288,6.984
		c-3.545-1.752-7.264-3.406-11.857-3.406c-2.235,0-4.476,0.382-6.852,1.175c-1.219,0.407-2.313,0.752-3.333,1.07
		c-5.739,1.806-9.202,2.893-18.444,9.828c-8.676,6.507-16.866,12.65-16.711,18.275c0.056,2.059,1.202,3.844,3.395,5.308
		c4.895,3.264,8.994,4.657,13.703,4.657c2.979,0,6.401-0.539,11.437-1.798c7.266-1.818,14.437-4.804,18.441-6.606
		c-1.802,4.54-4.869,13.614-6.713,26.519c-0.324,2.265-0.606,4.334-0.87,6.221c-1.857,13.513-2.421,16.702-5.834,16.702
		c-1.319,0-5.411,0-11.017,0.08h-0.002c-0.231,0.002-7.07,0.133-7.07,0.133l-7.607,0.217c-0.003,0-4.08,0.153-4.08,0.153
		l-4.354,0.197c0,0-2.916,0.15-4.173,0.222c0,0-4.772,0.299-4.774,0.299c-1.234,0.088-4.569,0.356-4.569,0.356
		c-1.136,0.097-2.254,0.197-3.359,0.306c-0.004,0-0.275,0.022-0.28,0.022c-1.161,0.117-2.284,0.238-3.395,0.369l-0.839,0.1
		c-1.054,0.127-2.085,0.261-3.25,0.423c-1.027,0.149-2.003,0.309-2.943,0.47l-0.722,0.127c-0.918,0.166-1.805,0.341-2.701,0.537
		c-0.846,0.19-1.619,0.389-2.349,0.596l-0.543,0.156c-0.723,0.216-1.415,0.445-2.008,0.682c-0.8,0.318-1.653,0.63-2.542,0.933
		l-2.802,0.898l-1.996,0.583c0,0-2.892,0.815-4.034,1.125c-0.008,0-0.015,0.008-0.024,0.012l-0.643,0.172
		c-5.365,1.455-10.907,2.965-16.118,4.873c-0.1,0.013-0.2,0.017-0.3,0.054c-0.737,0.271-1.457,0.562-2.171,0.85
		c0,0-0.11,0.043-0.113,0.046l-0.862,0.352c-0.592,0.249-1.172,0.516-1.865,0.837c-0.383,0.184-0.765,0.36-1.142,0.547
		c-0.539,0.268-1.064,0.548-1.577,0.833c-0.422,0.232-0.837,0.469-1.233,0.71c-0.459,0.274-0.909,0.559-1.347,0.854
		c-0.429,0.285-0.834,0.583-1.239,0.886c-0.382,0.285-0.762,0.572-1.118,0.873c-0.423,0.355-0.808,0.729-1.375,1.28
		c-0.237,0.229-0.476,0.46-0.699,0.703c-0.411,0.46-0.773,0.942-1.128,1.431l-0.188,0.245c-0.142,0.181-0.278,0.36-0.404,0.555
		c-0.543,0.851-0.971,1.669-1.303,2.496c-3.903,9.758-6.361,13.719-7.297,15.038c-1.656-0.424-7.08-1.919-12.473-4.658l-0.034-0.015
		c-0.443-0.228-0.887-0.462-1.329-0.705c-0.072-0.041-0.148-0.081-0.223-0.123c-0.371-0.209-0.742-0.426-1.112-0.646
		c-0.128-0.078-0.263-0.155-0.39-0.236c-0.312-0.188-0.613-0.387-0.917-0.586c-0.173-0.112-0.344-0.225-0.515-0.342
		c-0.262-0.18-0.521-0.366-0.779-0.554c-0.187-0.136-0.373-0.273-0.558-0.413c-0.391-0.296-0.773-0.599-1.142-0.915l-0.002-0.002
		c-3.032-2.583-4.864-5.37-5.446-8.283c-0.848-4.242-1.148-9.041-1.437-13.679c-0.625-10.026-1.217-19.495-7.898-19.495
		c-2.655,0-5.553,1.82-8.38,5.265c-5.876,7.171-10.983,21.102-8.981,31.106c0.467,2.33,0.765,4.48,1.054,6.557
		c1.365,9.832,2.353,16.936,18.455,23.836c15.248,6.533,25.197,7.817,28.632,8.071c0.101,4.441,0.789,19.246,5.4,28.604
		c1.157,5.263-4.772,19.701-10.009,32.45c-2.205,5.369-4.288,10.441-5.923,14.952c0,0.003,0,0.007,0,0.012
		c-0.002,0.004-0.004,0.007-0.007,0.011c-0.262,0.725-0.51,1.429-0.744,2.114c0,0.001-0.832,2.558-0.832,2.558
		c-0.144,0.479-0.57,1.972-0.57,1.972c-0.109,0.415-0.211,0.813-0.302,1.197l-0.137,0.595c-0.077,0.366-0.144,0.712-0.232,1.211
		l-0.069,0.415c-0.052,0.333-0.081,0.643-0.12,1.08l-0.033,0.379c-0.019,0.325-0.01,0.622,0.002,1.006
		c0,0.037,0.008,0.28,0.011,0.32c0.043,0.459,0.121,0.854,0.241,1.216c1.876,5.637,6.994,9.584,12.438,9.584
		c2.92,0,7.251-1.137,11.299-6.531c0.464-0.625,0.957-1.313,1.457-2.038l1.484-2.206l0.998-1.55l1.731-2.754
		c0-0.005,0-0.007,0.001-0.009c2.074-3.362,4.288-7.119,6.542-10.94c6.167-10.469,12.544-21.291,17.083-25.83
		c6.362-6.361,9.22-9.141,16.854-9.986c3.357,11.366,5.48,21.206,6.279,29.235c0.151,1.486,0.322,2.821,0.505,4.101
		c0.002,0.016-0.007,0.026-0.004,0.043c0.092,0.642,0.293,1.919,0.295,1.919c0,0,0,0,0,0.002c0.006,0.024,0.01,0.067,0.013,0.095
		c0.103,0.6,0.207,1.172,0.334,1.846c0.107,0.544,0.217,1.066,0.36,1.694c0.117,0.495,0.235,0.968,0.383,1.537
		c0.124,0.454,0.25,0.886,0.407,1.394c0.134,0.42,0.269,0.821,0.425,1.25c0.145,0.394,0.292,0.768,0.447,1.125
		c1.745,4.062,4.197,6.037,7.501,6.037h0.002c0.176,0,0.353-0.017,0.532-0.026c0.05,0,0.102,0,0.153-0.004
		c0.013,0,0.027-0.003,0.04-0.003c0.023-0.004,0.051-0.004,0.071-0.004l0.003-0.002c1.108-0.091,2.164-0.348,3.185-0.599l0.875-0.21
		l0.002-0.004l0.051-0.01l0.487-0.102c0.013-0.003,0.481-0.083,0.496-0.084c0.005-0.003,0.421-0.049,0.426-0.054
		c0.132-0.009,0.262-0.015,0.391-0.015c0.476,0,0.956-0.115,1.661-0.448c0.369-0.203,0.725-0.479,1.107-0.863
		c0.01-0.012,0.187-0.204,0.198-0.217c0.292-0.329,0.579-0.713,0.843-1.146l0.18-0.317c0.221-0.388,0.438-0.818,0.642-1.278
		l0.173-0.392c0.197-0.468,0.386-0.984,0.608-1.639l0.176-0.531c0.17-0.535,0.331-1.107,0.488-1.702l0.239-0.93
		c0.113-0.468,0.225-0.955,0.332-1.446c0.107-0.498,0.21-1.01,0.31-1.536l0.209-1.118c0.125-0.714,0.249-1.45,0.365-2.202
		l0.148-1.005l0.016-0.123c0-0.006,0.004-0.008,0.004-0.012l0.205-1.501c0.003-0.021-0.005-0.034-0.005-0.053
		c0.944-7.306,1.462-16.418,1.462-25.675c0-1.298,0.031-2.501,0.074-3.67c0.604,0.01,1.202,0.022,1.816,0.022
		c10.182,0,19.38-1.174,28.125-3.581c0.044-0.008,0.086-0.005,0.125-0.016c0.238-0.067,0.483-0.15,0.718-0.219
		c0.998-0.285,2.041-0.603,3.124-0.957c0.173-0.055,0.34-0.098,0.513-0.154l0.538-0.18c0.003-0.003,0.005-0.004,0.008-0.004
		c0.081-0.026,0.149-0.047,0.228-0.069l0.366-0.13c1.566-0.541,3.14-1.139,4.711-1.783l0.794-0.327
		c1.573-0.664,3.148-1.377,4.739-2.156l0.65-0.33c1.654-0.832,3.312-1.712,4.966-2.678c8.019-4.676,15.205-8.855,21.471-12.489
		c0.006-0.003,0.006-0.006,0.006-0.006c0.03-0.02,0.063-0.038,0.094-0.058l12.298-7.114l11.546-6.652l-0.665-1.161l0.987,0.972
		l3.893-2.232h0.003l0.331-0.188c3.909,3.576,23.834,21.612,37.417,29.965c0.019,0.014,0.039,0.006,0.058,0.017
		c0.031,0.024,0.057,0.051,0.089,0.074c0.005,0.002,0.011,0.01,0.016,0.015c0,0,0.005,0.002,0.01,0.002
		c0.011,0.008,0.021,0.022,0.032,0.033l0.004-0.007c0.027,0.014,0.056,0.029,0.12,0.072c0.05,0.034,0.094,0.062,0.094,0.065
		c0.01,0.003,0.016,0,0.021,0.007c0.358,0.215,0.963,0.581,1.254,0.751l0.459,0.256l0.649-1.17l-0.397,1.308l0.93,0.516
		c0,0,1.271,0.646,1.567,0.787l0.643,0.297c0.292,0.13,0.58,0.254,0.853,0.365l0.599,0.239c0.293,0.109,0.574,0.204,0.833,0.287
		l0.551,0.174c0.298,0.084,0.583,0.146,0.98,0.229c0.025,0.01,0.289,0.063,0.321,0.068c0.433,0.069,0.851,0.109,1.227,0.109
		c6.828,0,11.666-5.809,13.918-11.245c1.375-3.314,2.303-7.862,0.417-9.748c-0.099-0.103-0.255-0.248-0.637-0.604
		c0-0.002-8.808-7.987-8.808-7.987v-0.002c-11.269-10.29-19.753-18.608-25.3-24.799c8.248,0.32,21.178,0.739,32.405,0.739
		c2.322,0,4.571-0.021,6.703-0.059c0.005,0,0.005,0.004,0.01,0.004c0.005,0,1.375-0.035,2.006-0.051
		c0.27-0.005,0.46-0.008,0.46-0.008c1.505-0.042,2.926-0.1,4.467-0.18l1.681-0.104l2.154-0.175c0,0,1.625-0.184,1.629-0.184
		c0.305-0.038,1.432-0.217,1.432-0.217c0.449-0.079,0.863-0.163,1.225-0.254c4.369-1.092,6.396-2.256,7.008-4.021
		C396.973,627.2,395.348,625.095,393.096,622.183"/>
  <path fill="#F3B16A"
        d="M183.317,737.629c1.972,4.593,4.462,5.407,6.96,5.195C187.779,743.036,185.289,742.218,183.317,737.629"/>
  <path fill="#EB9A42"
        d="M376.609,613.646c1.087,0.24,2.134,0.486,3.119,0.744C378.743,614.133,377.696,613.887,376.609,613.646"/>
  <path fill="#EB9A42"
        d="M379.869,614.431c1.019,0.269,1.98,0.546,2.867,0.835C381.85,614.977,380.888,614.699,379.869,614.431"/>
  <path fill="#EB9A42" d="M376.41,613.603c-17.227-3.759-46.198-5.331-51.015-5.572c-0.146,5.11,0.642,10.294,0.642,14.678
		c0,1.941,2.357,5.452,5.954,9.688c10.096,0.418,28.613,1.057,42.178,0.807C372.675,627.309,374.135,620.104,376.41,613.603"/>
  <path fill="#EB9A42" d="M173.611,692.451c3.028,10.091,5.692,21.007,6.647,30.562c0.151,1.489,0.321,2.818,0.503,4.093
		c7.926-1.71,16.64-2.355,22.113-2.602c0.965-7.443,1.458-16.48,1.458-25.563c0-1.796,0.051-3.441,0.12-5.019
		c-10.901-0.245-19.886-1.67-25.531-1.67C176.923,692.253,175.187,692.324,173.611,692.451"/>
  <path fill="#EB9A42"
        d="M194.158,742.041c-1.243,0.281-2.563,0.674-3.878,0.783C191.595,742.715,192.915,742.322,194.158,742.041"
  />
  <path fill="#FCB25E"
        d="M277.964,669.066c-6.267,3.634-13.442,7.804-21.471,12.488C264.512,676.876,271.697,672.7,277.964,669.066"
  />
  <path fill="#FCB25E" d="M209.683,672.193c0,0-4.476,4.528-5.232,21.729c9.245,0.21,19.863-0.441,31.02-3.526
		c7.34-7.958,13.149-22.531,17.423-33.276L209.683,672.193z"/>
  <path fill="#FCB25E"
        d="M340.566,584.939c-0.616,0.491-1.225,0.979-1.813,1.46C339.345,585.919,339.95,585.431,340.566,584.939"/>
  <path fill="#FCB25E" d="M314.502,611.173l-9.863-9.863c0,0,5.35-5.349,24.072-18.725c13.14-9.382,23.62-10.86,28.719-10.911
		c-5.344,4.31-11.198,8.751-16.294,12.81c10.819-8.61,25.139-18.994,30.374-25.971c6.849-9.132,7.841-24.09,6.327-33.269
		c-1.495,0.732-2.895,1.17-3.652,1.17c-2.675,0-8.024,0-10.7-8.025c-0.71-2.125-1.029-3.852-1.133-5.278
		c-5.611,0.606-15.271,5.104-20.266,2.604c-5.348-2.674-21.398-16.049-32.097-16.049h-13.374c0,0-8.025-16.049-16.049-16.049
		s-18.724-5.349-26.749,2.676c-8.024,8.024-8.024,8.024-2.675,10.699c5.351,2.674,10.7,2.674,16.05,2.674
		c5.349,0,10.699,5.35,10.699,5.35s-5.35,0-10.699,8.025c-5.35-2.676-10.699-5.35-18.725-2.676
		c-8.024,2.676-10.699,2.676-21.398,10.7c-10.698,8.024-21.399,16.05-13.374,21.399c8.024,5.349,13.374,5.349,24.073,2.674
		c10.699-2.674,21.398-8.023,21.398-8.023s-5.35,10.699-8.025,29.423c-2.674,18.724-2.674,24.072-8.024,24.072
		c-1.319,0-5.407,0.004-11.005,0.082c0.196,3.397-2.369,8.395-2.369,15.967c0,13.375-2.675,16.05-13.373,18.724
		c-10.701,2.675-32.099-5.349-45.473-13.374c-6.062-3.632-8.256-8.36-8.87-12.452c0.072-0.017,0.141-0.038,0.214-0.059
		c-5.585,1.519-11.62,3.129-17.132,5.167c8.904,11.304,4.386,18.059,1.715,26.068c-2.676,8.024,8.024,13.375,13.374,18.724
		c5.349,5.35-26.749,16.05-32.098,13.374c-5.349-2.675-10.699-16.049-13.374-21.399c-2.674-5.348-8.024,0-13.373-10.698
		c-1.188-2.377-1.831-4.745-2.138-7.005c-2.906-2.479-5.171-5.466-5.888-9.044c-2.674-13.374,0-32.099-8.024-32.099
		c-8.024,0-18.724,21.399-16.049,34.774c2.674,13.373,0,21.397,18.724,29.422c18.723,8.024,29.422,8.024,29.422,8.024
		s0,18.725,5.351,29.424c1.936,7.747-10.138,32.3-15.939,48.316c7.491,0.595,17.314,2.4,24.22,7.422
		c7.752-12.569,17.458-30.658,23.816-37.015c6.826-6.822,9.804-9.771,18.764-10.502c-5.448-18.156-12.077-33.633-12.077-33.633
		L314.502,611.173z M366.161,547.813c8.024-2.675,8.024-8.025,8.024-8.025c2.674,5.35-2.675,8.025-5.349,10.701
		c-2.675,2.674-8.026,2.674-8.026,2.674l-2.674-2.674L366.161,547.813z M315.339,518.389c10.698-2.674,16.049,8.025,10.698,13.375
		c-5.348,5.351-10.698-2.675-13.373-5.35C309.989,523.739,309.537,519.842,315.339,518.389 M259.167,595.961
		c8.025,0,8.025,8.023,8.025,13.373s-8.025,2.674-13.375,2.674s-8.024-2.674-8.024-8.023
		C245.793,598.634,259.167,595.961,259.167,595.961"/>
  <path fill="#FCB25E"
        d="M337.583,587.364c-0.404,0.334-0.822,0.674-1.207,0.999C336.763,588.038,337.176,587.7,337.583,587.364"/>
  <path fill="#FCB25E" d="M295.837,642.14l11.398,10.036c0.021-0.01,0.078-0.045,0.078-0.045s22.831,21.19,37.931,30.479
		c0.985-3.32,2.592-7.203,4.866-11.755c2.974-5.945,6.312-9.313,9.341-11.206c-8.396-7.669-20.359-18.885-27.462-27.253
		c-4.458-0.184-7.289-0.325-7.289-0.325L295.837,642.14z"/>
  <path fill="#FCB25E"
        d="M290.367,661.885c-2.35,1.358-4.938,2.855-7.742,4.479C285.429,664.74,288.013,663.247,290.367,661.885"/>
  <path fill="#FCB25E" d="M314.502,611.173l-152.968,47.646c0,0,6.631,15.477,12.077,33.633c1.576-0.127,3.312-0.198,5.31-0.198
		c5.643,0,14.628,1.425,25.531,1.672c0.755-17.203,5.229-21.731,5.229-21.731l43.214-15.073c0.314-0.792,0.625-1.567,0.922-2.314
		c5.35-13.37,32.099-21.396,32.099-21.396l9.921,8.729l28.864-10.069c0,0,2.831,0.142,7.289,0.325
		c-3.596-4.235-5.954-7.746-5.954-9.688L314.502,611.173z"/>
  <path fill="#976026" d="M170.898,612.008c13.374,8.025,34.772,16.049,45.473,13.374c10.698-2.674,13.373-5.349,13.373-18.724
		c0-7.572,2.565-12.569,2.369-15.967h-0.025c-0.968,0.016-1.999,0.031-3.053,0.05c-0.21,0.005-0.424,0.01-0.638,0.013
		c-1.023,0.023-2.071,0.042-3.157,0.065c-0.062,0.002-0.12,0.002-0.182,0.005c-1.125,0.026-2.287,0.059-3.466,0.088
		c-0.271,0.009-0.546,0.018-0.821,0.025c-1.088,0.03-2.188,0.067-3.31,0.104c-0.127,0.005-0.254,0.008-0.378,0.014
		c-1.215,0.042-2.451,0.088-3.693,0.141c-0.291,0.01-0.585,0.023-0.874,0.037c-1.15,0.047-2.308,0.099-3.466,0.155
		c-0.137,0.01-0.27,0.014-0.408,0.02c-1.248,0.063-2.503,0.131-3.751,0.203c-0.309,0.019-0.614,0.036-0.921,0.056
		c-1.164,0.066-2.324,0.143-3.475,0.222c-0.119,0.008-0.24,0.015-0.36,0.024c-1.231,0.085-2.445,0.178-3.649,0.275
		c-0.301,0.025-0.604,0.051-0.903,0.076c-1.129,0.097-2.241,0.196-3.336,0.3c-0.094,0.012-0.192,0.02-0.285,0.029
		c-1.154,0.113-2.27,0.235-3.367,0.362c-0.28,0.031-0.559,0.066-0.836,0.1c-1.045,0.127-2.07,0.26-3.051,0.4
		c-0.053,0.005-0.115,0.013-0.168,0.021c-1.018,0.147-1.981,0.305-2.917,0.465c-0.237,0.04-0.471,0.082-0.701,0.123
		c-0.9,0.164-1.773,0.333-2.582,0.511c-0.023,0.007-0.047,0.012-0.069,0.015c-0.822,0.182-1.568,0.377-2.279,0.577
		c-0.177,0.052-0.348,0.103-0.519,0.152c-0.688,0.205-1.338,0.416-1.899,0.643c-0.822,0.328-1.694,0.646-2.609,0.956
		c-0.447,0.152-0.933,0.302-1.401,0.449c-0.479,0.157-0.947,0.313-1.445,0.464c-0.65,0.195-1.332,0.391-2.011,0.586
		c-0.346,0.098-0.677,0.2-1.028,0.3c-0.925,0.259-1.875,0.519-2.838,0.781c-0.073,0.021-0.142,0.042-0.214,0.059
		C162.642,603.647,164.836,608.376,170.898,612.008"/>
  <path fill="#976026"
        d="M99.216,623.728c6.914,5.899,17.493,8.84,20.174,9.514C116.646,632.545,106.095,629.597,99.216,623.728"/>
  <path fill="#976026" d="M114.727,641.431c2.675,5.351,8.025,18.725,13.374,21.399c5.35,2.676,37.447-8.024,32.098-13.374
		c-5.35-5.349-16.05-10.699-13.374-18.724c2.671-8.01,7.189-14.765-1.715-26.068c-0.756,0.279-1.534,0.54-2.271,0.839
		c-0.281,0.114-0.567,0.226-0.845,0.345c-0.623,0.261-1.223,0.539-1.819,0.817c-0.375,0.175-0.747,0.35-1.109,0.529
		c-0.525,0.262-1.033,0.534-1.534,0.807c-0.404,0.225-0.799,0.453-1.187,0.688c-0.441,0.263-0.872,0.536-1.289,0.813
		c-0.41,0.275-0.798,0.561-1.184,0.848c-0.36,0.271-0.718,0.544-1.059,0.826c-0.394,0.334-0.756,0.685-1.116,1.037
		c-0.277,0.271-0.569,0.539-0.822,0.819c-0.383,0.424-0.712,0.874-1.045,1.321c-0.176,0.246-0.382,0.481-0.545,0.734
		c-0.462,0.724-0.866,1.477-1.185,2.271c-5.349,13.373-8.024,16.048-8.024,16.048s-0.059-0.013-0.166-0.037
		c-0.063-0.015-0.14-0.033-0.267-0.065c-0.079-0.019-0.156-0.038-0.254-0.063c-2.682-0.67-13.26-3.614-20.174-9.514
		c0.307,2.26,0.95,4.628,2.138,7.005C106.702,641.431,112.052,636.083,114.727,641.431"/>
  <path fill="#976026" d="M145.082,604.624c-0.765,0.277-1.502,0.578-2.241,0.879c0.733-0.299,1.515-0.56,2.272-0.839
		C145.1,604.65,145.093,604.637,145.082,604.624"/>
  <path fill="#976026" d="M253.817,612.008c5.35,0,13.375,2.676,13.375-2.674s0-13.373-8.025-13.373c0,0-13.374,2.673-13.374,8.023
		C245.793,609.334,248.468,612.008,253.817,612.008"/>
  <path fill="#FFFFFF" d="M328.712,582.585c-18.723,13.376-24.072,18.725-24.072,18.725l9.863,9.866l10.199-3.18
		c0,0,0.242,0.014,0.691,0.034c0.129-4.24,0.895-8.43,3.32-12.069c0.299-0.447,0.698-0.941,1.14-1.456
		c0.105-0.119,0.212-0.24,0.321-0.365c0.473-0.521,0.982-1.064,1.573-1.64c0.023-0.024,0.055-0.048,0.078-0.074
		c0.593-0.578,1.25-1.184,1.951-1.81c0.126-0.112,0.251-0.228,0.382-0.343c0.695-0.616,1.441-1.257,2.221-1.91
		c0.384-0.325,0.803-0.665,1.207-0.999c0.387-0.32,0.769-0.639,1.17-0.965c0.591-0.48,1.198-0.969,1.813-1.46
		c0.19-0.155,0.376-0.304,0.57-0.456c5.096-4.059,10.95-8.5,16.294-12.81C352.332,571.725,341.852,573.203,328.712,582.585"/>
  <path fill="#FFFFFF"
        d="M336.377,588.363c-0.779,0.653-1.523,1.294-2.221,1.91C334.852,589.657,335.598,589.017,336.377,588.363"/>
  <path fill="#FFFFFF"
        d="M338.754,586.399c-0.402,0.326-0.784,0.645-1.17,0.965C337.97,587.044,338.355,586.726,338.754,586.399"/>
  <path fill="#FFFFFF"
        d="M341.136,584.483c-0.19,0.152-0.379,0.301-0.57,0.456C340.757,584.784,340.946,584.636,341.136,584.483"/>
  <path fill="#FFFFFF" d="M314.502,611.173l11.534,11.535c0-4.384-0.788-9.567-0.642-14.678c-0.449-0.021-0.694-0.031-0.694-0.031
		L314.502,611.173z"/>
  <path fill="#FFFFFF" d="M307.239,652.176L307.239,652.176c-0.1,0.058-0.465,0.266-1.105,0.632
		C306.766,652.447,307.139,652.233,307.239,652.176"/>
  <path fill="#FFFFFF" d="M252.896,657.12c-4.276,10.745-10.085,25.318-17.425,33.276c1.591-0.441,3.192-0.93,4.806-1.477
		c0.198-0.064,0.397-0.128,0.593-0.198c1.543-0.532,3.092-1.12,4.647-1.759c0.256-0.104,0.517-0.214,0.773-0.319
		c1.546-0.652,3.102-1.356,4.66-2.121c0.219-0.108,0.433-0.224,0.647-0.329c1.632-0.82,3.261-1.687,4.896-2.639
		c8.029-4.685,15.202-8.854,21.471-12.488c0.034-0.021,0.068-0.04,0.102-0.06c1.528-0.888,3.002-1.742,4.417-2.562
		c0.05-0.029,0.094-0.052,0.142-0.081c2.804-1.624,5.389-3.121,7.742-4.479c0.216-0.126,0.418-0.239,0.632-0.363
		c1.021-0.589,2.009-1.163,2.938-1.697c0.003-0.004,0.008-0.004,0.008-0.006c2.158-1.244,4.06-2.34,5.716-3.292
		c0.058-0.035,0.11-0.063,0.17-0.098c0.749-0.431,1.444-0.831,2.085-1.197c0.114-0.068,0.211-0.125,0.32-0.188
		c0.538-0.309,1.042-0.598,1.492-0.856c0.358-0.202,0.647-0.373,0.947-0.545c0.116-0.063,0.241-0.135,0.346-0.195
		c0.407-0.234,0.752-0.431,1.05-0.604c0.02-0.015,0.042-0.025,0.062-0.036c0.638-0.366,1.003-0.574,1.103-0.632l-11.398-10.036
		L252.896,657.12z"/>
  <path fill="#FFFFFF" d="M235.453,690.413c1.6-0.441,3.209-0.949,4.823-1.493c-1.614,0.544-3.215,1.035-4.806,1.477
		C235.466,690.402,235.46,690.406,235.453,690.413"/>
  <path fill="#FFFFFF"
        d="M299.661,656.526c-1.656,0.95-3.558,2.048-5.716,3.29C296.103,658.572,298.01,657.473,299.661,656.526"/>
  <path fill="#FFFFFF" d="M285.916,633.407c0,0-26.749,8.023-32.099,21.398c-0.296,0.747-0.605,1.522-0.924,2.314l42.94-14.98
		L285.916,633.407z"/>
  <path fill="#FCB25E" d="M374.185,526.414c0.757,0,2.157-0.438,3.652-1.17c-0.126-0.76-0.266-1.479-0.421-2.156
		c-0.011-0.035-0.016-0.072-0.029-0.111c-0.158-0.69-0.334-1.333-0.527-1.913c-2.674-8.024-8.023-8.024-13.374-8.024
		c-0.354,0-0.737,0.026-1.133,0.07c0.104,1.426,0.423,3.153,1.133,5.278C366.161,526.414,371.51,526.414,374.185,526.414"/>
  <g opacity="0.42">
		<g>
			<defs>
				<rect id="SVGID_3_" x="362.352" y="513.043" width="15.485" height="13.374"/>
			</defs>
      <clipPath id="SVGID_4_">
				<use xlink:href="#SVGID_3_" overflow="visible"/>
			</clipPath>
      <path clip-path="url(#SVGID_4_)" fill="#1C1B1C" d="M374.185,526.414c0.757,0,2.157-0.438,3.652-1.17
				c-0.126-0.76-0.266-1.479-0.421-2.156c-0.011-0.035-0.016-0.072-0.029-0.111c-0.158-0.69-0.334-1.333-0.527-1.913
				c-2.674-8.024-8.023-8.024-13.374-8.024c-0.354,0-0.737,0.026-1.133,0.07c0.104,1.426,0.423,3.153,1.133,5.278
				C366.161,526.414,371.51,526.414,374.185,526.414"/>
		</g>
	</g>
  <path fill="#1C1B1C" d="M326.037,531.764c5.351-5.35,0-16.049-10.698-13.375c-5.802,1.453-5.35,5.35-2.675,8.025
		C315.339,529.089,320.688,537.114,326.037,531.764"/>
  <path fill="#A46A2E" d="M368.836,550.489c2.674-2.676,8.023-5.351,5.349-10.701c0,0,0,5.35-8.024,8.025l-8.025,2.676l2.674,2.674
		C360.81,553.163,366.161,553.163,368.836,550.489"/>
  <path fill="#FEC483" d="M106.808,732.554c-0.262,0.721-0.508,1.423-0.743,2.107c-0.041,0.127-0.082,0.248-0.125,0.368
		c-0.189,0.561-0.365,1.106-0.534,1.638c-0.054,0.173-0.104,0.34-0.159,0.513c-0.145,0.466-0.278,0.92-0.401,1.361
		c-0.054,0.188-0.104,0.375-0.155,0.563c-0.109,0.399-0.206,0.788-0.293,1.163c-0.046,0.191-0.091,0.382-0.133,0.567
		c-0.074,0.349-0.136,0.68-0.194,1.004c-0.033,0.176-0.063,0.359-0.091,0.531c-0.046,0.31-0.072,0.594-0.099,0.874
		c-0.013,0.155-0.034,0.317-0.042,0.465c-0.014,0.281-0.005,0.535,0.005,0.782c0.002,0.114-0.003,0.241,0.008,0.349
		c0.032,0.339,0.084,0.648,0.173,0.912c2.675,8.023,13.375,13.374,21.398,2.674c0.461-0.608,0.939-1.284,1.432-1.998
		c0.225-0.324,0.459-0.673,0.689-1.021c0.254-0.378,0.508-0.755,0.771-1.155c0.326-0.499,0.659-1.008,0.993-1.533
		c0.152-0.238,0.301-0.479,0.458-0.722c0.413-0.657,0.834-1.323,1.26-2.018c0.002-0.004,0.005-0.006,0.005-0.011
		c-6.907-5.021-16.729-6.827-24.222-7.422C106.808,732.549,106.808,732.551,106.808,732.554"/>
  <path fill="#FEC483" d="M350.111,670.854c-2.277,4.552-3.881,8.435-4.863,11.755c0.13,0.083,0.279,0.184,0.412,0.264
		c0.423,0.254,0.841,0.508,1.245,0.746c0.217,0.119,0.425,0.231,0.636,0.35c0.327,0.183,0.647,0.363,0.967,0.531
		c0.219,0.116,0.434,0.224,0.642,0.332c0.298,0.152,0.59,0.299,0.877,0.434c0.209,0.1,0.413,0.19,0.617,0.283
		c0.278,0.125,0.549,0.242,0.815,0.351c0.194,0.078,0.38,0.154,0.564,0.224c0.266,0.1,0.525,0.189,0.778,0.269
		c0.167,0.053,0.331,0.11,0.49,0.155c0.269,0.079,0.523,0.133,0.773,0.186c0.127,0.022,0.256,0.059,0.376,0.078
		c0.361,0.061,0.703,0.094,1.02,0.094c10.699,0,16.049-16.05,13.375-18.724c-0.092-0.089-0.228-0.221-0.398-0.379
		c-0.056-0.052-0.13-0.12-0.193-0.179c-0.131-0.123-0.27-0.249-0.438-0.402c-0.095-0.089-0.208-0.191-0.314-0.288
		c-0.177-0.159-0.36-0.325-0.564-0.51c-0.131-0.115-0.267-0.241-0.405-0.366c-0.206-0.188-0.42-0.382-0.651-0.591
		c-0.386-0.348-0.802-0.722-1.242-1.12c-0.096-0.085-0.178-0.16-0.272-0.247c-0.372-0.331-0.756-0.681-1.156-1.043
		c-0.138-0.126-0.272-0.243-0.413-0.371c-0.454-0.414-0.924-0.842-1.417-1.288c-0.051-0.048-0.099-0.091-0.155-0.139
		c-0.57-0.517-1.154-1.052-1.766-1.609C356.422,661.542,353.084,664.909,350.111,670.854"/>
  <path fill="#FEC483" d="M345.243,682.622c0.141,0.088,0.276,0.165,0.417,0.251c-0.133-0.08-0.282-0.181-0.417-0.264
		C345.243,682.611,345.243,682.618,345.243,682.622"/>
  <path fill="#F3B16A" d="M388.896,618.695c-0.168-0.25-0.393-0.498-0.66-0.739c-0.066-0.056-0.156-0.108-0.225-0.167
		c-0.225-0.182-0.451-0.364-0.734-0.543c-0.078-0.051-0.176-0.097-0.262-0.146c-0.303-0.181-0.615-0.361-0.977-0.535
		c-0.074-0.035-0.166-0.069-0.24-0.107c-0.398-0.183-0.803-0.368-1.254-0.546c-0.063-0.022-0.143-0.047-0.205-0.073
		c-0.484-0.186-0.988-0.371-1.529-0.548c-0.025-0.009-0.053-0.017-0.074-0.024c-0.887-0.289-1.849-0.566-2.867-0.835
		c-0.047-0.014-0.094-0.024-0.141-0.04c-0.982-0.258-2.032-0.504-3.119-0.744c-0.068-0.015-0.131-0.032-0.197-0.044
		c-2.274,6.502-3.737,13.706-2.244,19.6c0.78-0.017,1.547-0.032,2.294-0.054c0.042,0,0.088-0.003,0.13-0.003
		c1.497-0.042,2.905-0.099,4.222-0.166c0.07-0.006,0.146-0.009,0.213-0.011c0.576-0.032,1.125-0.068,1.66-0.104
		c0.105-0.009,0.217-0.012,0.322-0.022c0.463-0.031,0.898-0.071,1.33-0.11c0.152-0.015,0.32-0.027,0.467-0.04
		c0.404-0.038,0.768-0.084,1.139-0.127c0.141-0.017,0.307-0.032,0.449-0.05c0.324-0.042,0.607-0.088,0.898-0.136
		c0.154-0.025,0.33-0.045,0.473-0.071c0.416-0.071,0.797-0.15,1.131-0.237C399.596,629.395,394.244,626.721,388.896,618.695"/>
  <path fill="#F3B16A" d="M376.412,613.6c0,0,0,0,0,0.003c0.066,0.012,0.129,0.029,0.197,0.044
		C376.538,613.632,376.479,613.614,376.412,613.6"/>
  <path fill="#F3B16A"
        d="M374.168,633.202c0.783-0.015,1.547-0.032,2.29-0.057C375.719,633.17,374.948,633.186,374.168,633.202"/>
  <path fill="#F3B16A"
        d="M379.729,614.391c0.047,0.013,0.094,0.026,0.141,0.04C379.822,614.417,379.775,614.403,379.729,614.391"/>
  <path fill="#F3B16A" d="M181.041,728.995c0.005,0.032,0.009,0.065,0.013,0.095c0.1,0.588,0.202,1.15,0.309,1.688
		c0.008,0.041,0.012,0.08,0.021,0.118c0.104,0.532,0.214,1.038,0.323,1.525c0.007,0.04,0.018,0.083,0.026,0.124
		c0.112,0.479,0.224,0.939,0.342,1.38c0.012,0.036,0.021,0.075,0.029,0.113c0.118,0.438,0.237,0.853,0.365,1.251
		c0.008,0.028,0.019,0.058,0.026,0.091c0.125,0.399,0.257,0.783,0.388,1.143c0.005,0.016,0.01,0.033,0.016,0.047
		c0.137,0.37,0.275,0.723,0.417,1.052l0.005,0.007c1.968,4.589,4.461,5.407,6.957,5.195c1.316-0.109,2.635-0.502,3.878-0.783
		c0.017-0.007,0.03-0.007,0.045-0.011c0.146-0.034,0.287-0.062,0.429-0.093c0.043-0.009,0.087-0.017,0.131-0.027
		c0.125-0.022,0.249-0.043,0.372-0.063c0.055-0.01,0.11-0.021,0.164-0.027c0.118-0.017,0.232-0.031,0.351-0.04
		c0.054-0.006,0.109-0.017,0.163-0.02c0.168-0.015,0.334-0.023,0.498-0.023c0.304,0,0.597-0.089,0.885-0.221
		c0.045-0.021,0.09-0.037,0.135-0.062c0.268-0.146,0.528-0.357,0.78-0.613c0.055-0.058,0.109-0.117,0.166-0.181
		c0.244-0.276,0.482-0.595,0.711-0.97c0.051-0.084,0.1-0.18,0.15-0.268c0.2-0.354,0.397-0.745,0.585-1.17
		c0.053-0.118,0.106-0.232,0.158-0.355c0.184-0.441,0.363-0.93,0.535-1.438c0.069-0.205,0.139-0.404,0.205-0.617
		c0.164-0.518,0.321-1.067,0.477-1.643c0.075-0.294,0.153-0.596,0.227-0.902c0.113-0.459,0.219-0.93,0.324-1.415
		c0.107-0.486,0.208-0.991,0.308-1.505c0.068-0.358,0.137-0.728,0.204-1.097c0.122-0.706,0.243-1.429,0.357-2.176
		c0.05-0.328,0.1-0.657,0.148-0.994c0.075-0.519,0.142-1.072,0.212-1.607c-5.477,0.246-14.191,0.892-22.114,2.602
		C180.854,727.747,180.941,728.401,181.041,728.995"/>
  <path fill="#F3B16A" d="M180.75,727.107c0.095,0.655,0.19,1.283,0.289,1.888c-0.099-0.594-0.187-1.248-0.278-1.89
		C180.757,727.105,180.754,727.105,180.75,727.107"/>
  <path fill="#F3B16A" d="M202.886,724.504h-0.01c-0.071,0.538-0.138,1.089-0.212,1.607
		C202.741,725.585,202.818,725.05,202.886,724.504"/>
  <path fill="#F3B16A"
        d="M183.321,737.629c1.972,4.593,4.461,5.407,6.96,5.195C187.782,743.036,185.293,742.218,183.321,737.629"/>
</g>
  <g>
	<path fill="#6B6B6B" d="M699.853,728.943c-1.53-4.599-4.59-9.948-7.548-15.125c-2.887-5.05-5.869-10.274-7.31-14.591
		c-3.007-9.016-11.746-26.507-23.854-50.712c-0.475-0.954-1.054-1.945-1.695-2.97c-12.139-19.997-41.909-31.848-80.723-31.848
		c-7.432,0-15.197,0.443-23.077,1.318c-1.858,0.205-3.658,0.418-5.422,0.629c-0.575,0.07-1.134,0.14-1.695,0.21
		c-1.229,0.149-2.432,0.301-3.614,0.455c-0.568,0.07-1.129,0.146-1.687,0.22c-1.338,0.179-2.647,0.355-3.927,0.534
		c-0.3,0.042-0.605,0.084-0.901,0.126c-1.648,0.233-3.245,0.469-4.8,0.703c-0.154,0.022-0.306,0.047-0.461,0.071
		c-1.455,0.22-2.863,0.442-4.231,0.666l-0.515,0.084c-8.018,1.305-14.616,2.588-19.985,3.724c-0.168,0.036-0.33,0.069-0.5,0.106
		c-0.852,0.182-1.679,0.358-2.472,0.53c-0.659,0.148-1.297,0.291-1.936,0.43c-0.237,0.052-0.488,0.109-0.722,0.162l-0.004,0.004
		c-4.632,1.042-8.657,2.023-12.167,2.882c-8.162,1.996-13.549,3.313-18.001,3.313c-3.81,0-7.419-0.007-10.63-0.119
		c-0.67-0.02-1.287-0.055-1.897-0.086c-0.263-0.013-0.522-0.029-0.779-0.045c-2.168-0.141-3.951-0.354-5.375-0.646
		c-0.016-0.001-0.032-0.001-0.046-0.006c-1.822-0.37-3.239-0.881-3.992-1.637c-1.984-1.981-8.123-18.923-11.528-29.131
		c-0.155-0.475-0.54-0.834-1.021-0.964c-0.128-0.036-0.259-0.054-0.39-0.054c-0.357,0-0.706,0.127-0.978,0.368l-23.227,20.322
		c-2.955-0.548-14.415-2.532-25.102-2.532c-6.759,0-12.042,0.788-15.74,2.342c-4-4.126-6.141-7.464-7.73-9.938
		c-2.003-3.12-3.452-5.377-6.753-5.377c-1.121,0-2.438,0.266-4.144,0.835c-0.396,0.133-0.717,0.424-0.889,0.805l-11.807,26.569
		c-2.049,2.581-23.979,30.544-23.979,45.352c0,0.606-0.086,1.296-0.142,1.956l-4.15-0.462c-0.055-0.006-0.11-0.007-0.165-0.007
		c-0.362,0-0.716,0.132-0.99,0.376c-0.313,0.284-0.496,0.686-0.496,1.11v2.971c0,0.818,0.665,1.484,1.486,1.484h3.602
		c-0.136,0.831-0.273,1.685-0.401,2.559l-3.383,0.426c-0.743,0.092-1.304,0.725-1.304,1.474v2.971c0,0.456,0.213,0.889,0.572,1.172
		c0.266,0.204,0.587,0.315,0.915,0.315c0.118,0,0.241-0.016,0.36-0.047l2.262-0.565c-0.205,5.192,0.625,10.714,4.526,15.896
		c7.449,9.896,24.686,16.467,52.831,20.075c-1.917,0.727-3.487,2.031-4.756,3.934c-3.007,4.51-3.352,9.912-0.919,14.456
		c2.941,5.497,9.146,8.653,17.012,8.653c1.274,0,2.793,0.021,4.519,0.047c2.295,0.033,4.961,0.073,7.914,0.073
		c36.232,0,62.538-6.895,80.405-21.079c8.404-2.765,14.082-2.812,14.081-2.812l70.418,2.815c-1.396,1.429-2.682,3.282-2.566,5.186
		c0.067,1.081,0.621,2.604,2.856,3.727c1.868,0.933,4.898,1.387,9.263,1.387c9.648,0,24.423-2.258,36.221-4.222
		c7.75-1.292,17.93-2.027,26.913-2.682c14.685-1.064,22.441-1.708,24.411-3.676c6.035-6.041,8.39-7.329,9.311-7.49
		c0.02,0.111,0.035,0.267,0.035,0.496c0,0.6,0.03,1.228,0.063,1.875c0.122,2.647,0.249,5.385-1.716,7.441
		c-2.57,2.691-8.512,4.055-17.661,4.055c-22.775,0-59.521,5.488-62.445,5.935c-0.775-0.071-3.808-0.32-7.881-0.32
		c-10.958,0-24.901,1.746-29.063,10.064c-3.094,6.187-3.33,12.758-0.615,17.147c1.761,2.848,4.572,4.414,7.924,4.414
		c2.052,0,4.263-0.587,6.57-1.738c10.028-5.013,48.593-15.169,63.528-15.169c2.069,0,3.146,0.212,3.683,0.391
		c3.077,1.027,7.882,1.241,11.372,1.241c12.654,0,31.181-2.714,40.278-7.266C695.822,747.242,702.766,737.684,699.853,728.943
		 M395.347,730.9c-2.754,0-6.004-0.978-9.147-1.922c-1.212-0.362-2.439-0.731-3.662-1.053h29.321
		C406.34,729.407,399.694,730.9,395.347,730.9"/>
    <path fill="#FFFFFF" d="M353.749,604.607l-11.886,26.743c0,0-23.772,29.715-23.772,44.574c0,14.856-17.828,41.6,56.459,50.514
		h32.687h14.857c0,0-17.828,5.944-26.742,5.944c-8.915,0-20.802-8.915-26.745,0c-5.942,8.912,0,20.8,14.858,20.8
		c14.857,0,62.4,2.972,92.116-20.8c8.916-2.971,14.859-2.971,14.859-2.971l74.289,2.971c0,0-8.916,5.942-2.974,8.912
		c5.943,2.975,26.744,0,44.574-2.97c17.829-2.971,47.544-2.971,50.515-5.942c2.972-2.971,11.885-11.887,11.885-5.944
		c0,5.944,2.974,14.856-20.799,14.856c-23.771,0-62.402,5.944-62.402,5.944s-29.715-2.97-35.658,8.915
		c-5.941,11.887,0,23.772,11.886,17.827c11.886-5.94,59.431-17.827,68.345-14.854c8.916,2.972,38.629,0,50.517-5.944
		c11.887-5.943,20.802-14.857,17.829-23.771c-2.972-8.916-11.886-20.801-14.858-29.716c-2.971-8.915-11.885-26.744-23.771-50.517
		c-11.886-23.771-50.516-38.628-104.003-32.687s-71.316,14.857-83.202,14.857c-11.887,0-20.802,0-23.773-2.972
		c-2.973-2.971-11.886-29.715-11.886-29.715l-23.773,20.8c0,0-29.714-5.942-41.6,0C359.691,607.578,362.664,601.635,353.749,604.607
		"/>
    <path fill="#F09DC2" d="M347.248,683.707c0,0,10.874-1.553,9.318,1.553c-1.552,3.105-3.104,4.659-6.213,3.105
		C347.248,686.813,345.695,685.26,347.248,683.707"/>
    <path fill="#FEC485" d="M659.815,649.18c-0.887-1.774-1.975-3.478-3.156-5.152c-12.771,4.229-31.618,11.256-35.474,17.038
		c-5.942,8.916-14.856,20.8,0,29.716c14.856,8.915,20.801,14.857,38.63,5.942c6.751-3.374,13.927-5.049,19.756-6.949
		C675.195,679.947,668.262,666.075,659.815,649.18"/>
    <path fill="#FEC485" d="M514.211,643.238c17.83,5.941,35.658,11.886,53.487,5.941c17.829-5.941,41.602-11.886,44.573-26.745
		c0.244-1.229,0.433-2.429,0.599-3.618c-16.046-3.67-35.293-4.739-57.058-2.323c-23.723,2.636-40.423,5.854-52.704,8.622
		C502.874,632.056,504.827,640.112,514.211,643.238"/>
    <path fill="#19A1E7" d="M436.951,711.581c-8.914,5.943-24.999,14.857-24.999,14.857h10.141c0,0-0.472,0.158-1.239,0.401
		c5.597-0.295,12.891-1.71,19.068-6.344c11.887-8.915,23.772-14.857,26.745-29.715c2.971-14.856,2.971-32.687,0-41.602
		c-1.781-5.345-3.56-12.812-4.702-17.945c-3.286-0.11-6.096-0.347-8.337-0.807c2.432,11.393,6.21,32.084,4.125,42.524
		C454.781,687.809,445.864,705.639,436.951,711.581"/>
    <path fill="#FEC485" d="M532.041,661.065c0,0-17.83-5.941-17.83,2.972c0,8.915,11.887,14.857,14.857,8.915
		C532.041,667.009,532.041,661.065,532.041,661.065"/>
    <path fill="#474747" d="M359.343,701.797c-3.165,0-5.238-1.636-6.747-2.831c-0.568-0.451-1.162-0.919-1.572-1.072
		c-4.914,3.094-8.995,2.015-11.573,0.541c-2.795-1.597-4.392-3.962-4.46-4.066l1.854-1.235c0.218,0.32,5.447,7.908,13.314,2.662
		l0.282-0.186h0.335c1.173,0,2.159,0.783,3.208,1.609c2.487,1.968,5.878,4.664,13.955-1.383l1.335,1.779
		C365.088,700.755,361.868,701.797,359.343,701.797"/>
    <polygon fill="#FDC0C2" points="434.403,604.607 419.122,622.435 436.951,631.351 	"/>
    <polygon fill="#FDC0C2" points="353.749,607.578 347.806,631.351 359.691,625.408 	"/>
    <path fill="#E5E5E5" d="M591.472,658.095c0,0-17.831,5.942-17.831,20.8s2.973,26.744,5.944,32.687
		c2.971,5.943,2.971,14.857-2.972,14.857c-5.944,0-8.915,2.974-8.915,2.974s8.915-2.974,8.915-8.916
		c0-5.941-8.915-20.8-8.915-29.715C567.698,681.865,567.698,661.065,591.472,658.095"/>
    <path fill="#3A3A3A" d="M342.921,671.44c-0.867,0-1.696-0.139-2.486-0.421c-4.25-1.507-5.542-6.5-5.597-6.712l2.161-0.543
		c0.011,0.042,1.071,4.06,4.194,5.158c2.341,0.82,5.333-0.121,8.917-2.805l1.334,1.783
		C348.304,670.257,345.448,671.44,342.921,671.44"/>
    <path fill="#3A3A3A" d="M384.534,673.723c-0.867,0-1.696-0.14-2.486-0.42c-4.251-1.509-5.542-6.501-5.598-6.712l2.161-0.544
		c0.012,0.043,1.071,4.06,4.194,5.158c2.341,0.821,5.333-0.121,8.917-2.805l1.335,1.781
		C389.917,672.54,387.062,673.723,384.534,673.723"/>
    <polygon fill="#6B6B6B" points="383.464,684.838 413.178,684.838 413.178,687.809 	"/>
    <polygon fill="#6B6B6B" points="383.464,687.809 410.207,696.724 407.235,699.696 	"/>
    <polygon fill="#6B6B6B" points="338.892,681.865 312.147,678.895 312.147,681.865 	"/>
    <polygon fill="#6B6B6B" points="335.919,684.838 312.147,687.809 312.147,690.781 	"/>
    <path fill="#46A1C2" d="M460.106,558.112c0,0,20.804,2.972,20.804,8.914c0,5.945-17.831,8.916-17.831,8.916
		s17.831,11.887,11.887,11.887c-5.943,0-29.716-8.916-29.716-8.916l26.744-11.887C471.994,567.026,454.166,561.084,460.106,558.112"
    />
    <path fill="#0F76A5" d="M495.768,513.54c0,0,20.801,2.972,23.771,8.915l2.971,5.943l-23.772,5.944l17.831,20.799
		c0,0-35.658-14.858-32.688-17.829c2.972-2.971,29.716-11.887,29.716-11.887S486.853,513.54,495.768,513.54"/>
</g>
</svg>
