<svg t="1641275101431" class="icon" viewBox="0 0 1024 1024" version="1.1" xmlns="http://www.w3.org/2000/svg" p-id="2630"
     width="200" height="200">
  <path d="M539.2 524.9m-420.1 0a420.1 420.1 0 1 0 840.2 0 420.1 420.1 0 1 0-840.2 0Z" fill="#c9454a"
        p-id="2631"></path>
  <path
    d="M213.9 357.3c-1.1 0-2.3-0.3-3.4-0.8-3.6-1.9-5-6.3-3.1-9.9 13.2-25.4 29.4-49.5 47.9-71.5a7.3 7.3 0 0 1 10.3-0.9 7.3 7.3 0 0 1 0.9 10.3c-17.9 21.2-33.4 44.3-46.1 68.8-1.3 2.6-3.8 4-6.5 4zM809.4 711.6c-1.4 0-2.8-0.4-4-1.2-3.4-2.2-4.3-6.8-2.1-10.1 8.7-13.2 16.7-27.2 23.6-41.4 1.8-3.6 6.2-5.1 9.8-3.4 3.6 1.8 5.1 6.2 3.4 9.8-7.2 14.8-15.5 29.3-24.6 43.1-1.4 2.1-3.7 3.2-6.1 3.2zM287.5 258.8c-1.9 0-3.8-0.7-5.3-2.2-2.8-2.9-2.7-7.5 0.2-10.4l3-2.9c2.9-2.8 7.6-2.7 10.4 0.3 2.8 2.9 2.7 7.6-0.3 10.4l-2.9 2.8c-1.4 1.3-3.2 2-5.1 2z"
    fill="#FFFFFF" p-id="2632"></path>
  <path d="M530.7 722.9m-34.1 0a34.1 34.1 0 1 0 68.2 0 34.1 34.1 0 1 0-68.2 0Z" fill="#FFFFFF" p-id="2633"></path>
  <path
    d="M192.5 220.8c-2 0-4-0.8-5.4-2.4-2.7-3-2.5-7.6 0.5-10.3 2-1.8 4-3.7 6.1-5.5 3-2.7 7.7-2.4 10.3 0.7 2.7 3 2.4 7.7-0.7 10.3-2 1.7-3.9 3.5-5.9 5.3-1.4 1.3-3.2 1.9-4.9 1.9zM490.8 936.2c-235.7 0-427.4-191.7-427.4-427.4 0-97.1 33.5-192.2 94.2-267.8 2.5-3.1 7.1-3.6 10.3-1.1 3.2 2.5 3.6 7.1 1.1 10.3-58.7 72.9-91 164.8-91 258.6 0 227.6 185.2 412.8 412.8 412.8 126.6 0 244.5-56.9 323.3-156.1 2.5-3.2 7.1-3.7 10.3-1.2 3.2 2.5 3.7 7.1 1.2 10.3-81.7 102.7-203.7 161.6-334.8 161.6zM857.4 721.3c-1.2 0-2.4-0.3-3.6-0.9-3.5-2-4.8-6.4-2.8-10 34.3-61.2 52.5-131 52.5-201.6C903.5 281.2 718.4 96 490.8 96c-74.1 0-146.8 19.9-210.2 57.4-3.5 2.1-8 0.9-10-2.6-2.1-3.5-0.9-8 2.6-10 65.6-38.9 140.9-59.5 217.6-59.5 235.7 0 427.4 191.7 427.4 427.4 0 73.2-18.8 145.3-54.4 208.8-1.3 2.5-3.8 3.8-6.4 3.8z"
    p-id="2634"></path>
  <path
    d="M530.7 637.6c-12.3 0-22.5-9.6-23.2-21.9l-18.2-322.2c-1.3-23.8 17.6-43.8 41.4-43.8 23.8 0 42.8 20 41.4 43.8l-18.2 322.2c-0.7 12.3-10.9 21.9-23.2 21.9z"
    fill="#FFFFFF" p-id="2635"></path>
</svg>
