<svg t="1646992713303" class="icon" viewBox="0 0 1024 1024" version="1.1" xmlns="http://www.w3.org/2000/svg" p-id="2197"
     width="200" height="200">
  <path
    d="M952.6 870.8L545.5 122.3c-18.4-34.1-48.6-35.5-67-1.4L71.4 871.6C53 905.6 70 928 109.1 928h805.8c39.1 0 56.1-23.1 37.7-57.2zM512 846.4c-25.9 0-46.9-20.8-46.9-46.3s20.9-46.3 46.9-46.3c25.9 0 46.9 20.8 46.9 46.3s-21 46.3-46.9 46.3z m39.4-199c-5.3 31.7-23 57.7-39.4 57.7-16.3 0-34-26-39.4-57.7l-39.8-241.1c-5.3-31.6 17-63.2 49.5-63.2h59.3c32.6 0 54.9 31.5 49.5 63.2l-39.7 241.1z"
    fill="#FFFF000" p-id="2198"></path>
</svg>
