<svg t="1642143085086" class="icon" viewBox="0 0 1024 1024" version="1.1" xmlns="http://www.w3.org/2000/svg" p-id="2105" width="200" height="200"><path d="M299.3 557.2H231c-8.4 0-15.2-8.7-15.2-13.8L193 282.2c0-5 6.8-13.7 15.2-13.7h113.9c8.4 0 15.2 8.7 15.2 13.7l-22.8 261.2c0 5.1-6.8 13.8-15.2 13.8zM316.7 682.6c0.9 34.2-26 62.6-60.2 63.6s-62.6-26-63.6-60.2v-3.4c0.9-34.2 29.4-61.1 63.6-60.2 32.8 1 59.2 27.4 60.2 60.2zM546.8 557.2h-68.3c-8.4 0-15.2-8.7-15.2-13.8l-22.8-261.2c0-5 6.8-13.7 15.2-13.7h113.9c8.4 0 15.2 8.7 15.2 13.7L562 543.4c-0.1 5.1-6.8 13.8-15.2 13.8zM564.1 682.6c0.9 34.2-26 62.6-60.2 63.6-34.2 0.9-62.6-26-63.6-60.2v-3.4c0.9-34.2 29.4-61.1 63.6-60.2 32.9 1 59.3 27.4 60.2 60.2zM794.2 557.2h-68.3c-8.4 0-15.2-8.7-15.2-13.8l-22.8-261.2c0-5 6.8-13.7 15.2-13.7H817c8.4 0 15.2 8.7 15.2 13.7l-22.8 261.2c0 5.1-6.8 13.8-15.2 13.8z m17.4 125.4c0.9 34.2-26 62.6-60.2 63.6-34.2 0.9-62.6-26-63.6-60.2v-3.4c0.9-34.2 29.4-61.1 63.6-60.2 32.9 1 59.3 27.4 60.2 60.2z" fill="#F56C6C" p-id="2106"></path></svg>
