<svg t="1644906144048" class="icon" viewBox="0 0 1024 1024" version="1.1" xmlns="http://www.w3.org/2000/svg" p-id="3857"
     width="200" height="200">
  <path
    d="M481.28 509.952l-145.408-145.408c-8.192-8.192-8.192-20.48 0-28.672s20.48-8.192 28.672 0l145.408 145.408 145.408-145.408c8.192-8.192 20.48-8.192 28.672 0 8.192 8.192 8.192 20.48 0 28.672l-145.408 145.408 145.408 145.408c8.192 8.192 8.192 20.48 0 28.672-8.192 8.192-20.48 8.192-28.672 0l-145.408-145.408-145.408 145.408c-8.192 8.192-20.48 8.192-28.672 0-8.192-8.192-8.192-20.48 0-28.672l145.408-145.408z m446.464 231.424c-6.144 10.24-18.432 14.336-28.672 8.192-10.24-6.144-14.336-18.432-8.192-28.672 118.784-212.992 40.96-481.28-172.032-598.016s-481.28-40.96-598.016 172.032-40.96 481.28 172.032 598.016c153.6 86.016 339.968 69.632 479.232-32.768 8.192-6.144 22.528-4.096 28.672 4.096 6.144 8.192 4.096 22.528-4.096 28.672-151.552 112.64-356.352 129.024-522.24 36.864-233.472-129.024-317.44-421.888-188.416-653.312 129.024-233.472 421.888-317.44 653.312-188.416 233.472 126.976 317.44 419.84 188.416 653.312z"
    p-id="3858" fill="#d81e06"></path>
</svg>
