<svg t="1645687259643" class="icon" viewBox="0 0 1088 1024" version="1.1" xmlns="http://www.w3.org/2000/svg" p-id="3597"
     width="200" height="200">
  <path
    d="M623.2064 561.2032l-40.5504-20.8384a2.4064 2.4064 0 0 1-1.0752-0.8192l-1.7408 1.792a5.632 5.632 0 0 0-0.7168 0.9216 3.84 3.84 0 0 0 1.6384 5.12l39.168 20.0192a3.1232 3.1232 0 0 0 2.8672 0 2.9696 2.9696 0 0 0 1.3824-4.1472l-0.9728-1.9968z"
    fill="#DCEFFF" p-id="3598"></path>
  <path
    d="M586.496 530.1248l-4.096-2.0992a0.512 0.512 0 0 1 0-0.7168l4.2496 2.2016a0.3584 0.3584 0 0 1 0 0.3072 0.4608 0.4608 0 0 1-0.4096 0.3072z m0-0.7168l-4.1984-2.1504a0.3584 0.3584 0 0 0 0 0.3072l4.096 2.0992z"
    fill="#F8F9FD" p-id="3599"></path>
  <path
    d="M990.3104 987.2384l-426.5984-218.368a51.2 51.2 0 0 1-22.4768-68.7616 53.1456 53.1456 0 0 1 8.8576-12.2368L748.0832 486.4a50.7392 50.7392 0 0 1 72.1408-0.7168 45.6192 45.6192 0 0 1 9.5232 12.9536L1049.6 928.0512a43.264 43.264 0 0 1-19.0464 59.1872 41.984 41.984 0 0 1-40.2432 0z m-417.7408-236.7488l427.264 218.4192a24.7296 24.7296 0 0 0 21.8112 0 23.8592 23.8592 0 0 0 10.24-32l-219.136-429.312a42.0352 42.0352 0 0 0-6.144-8.192 30.976 30.976 0 0 0-43.52 0.6656L564.3776 701.44a30.72 30.72 0 0 0-5.4272 7.4752 31.0784 31.0784 0 0 0 13.6192 41.5232z"
    fill="#3785E0" p-id="3600"></path>
  <path
    d="M470.4768 639.5904a6.912 6.912 0 0 0 7.5264-11.5712q-186.7776-116.3264-387.84-42.8544a6.8608 6.8608 0 1 0 4.7616 12.9024c129.28-47.616 254.464-33.3312 375.552 41.5232z m82.3296-245.76a8.2944 8.2944 0 0 0 10.24 0.7168 6.6048 6.6048 0 0 0 0-9.5232c-79.616-85.6576-116.3776-186.368-109.568-304.0768a6.8608 6.8608 0 1 0-13.6192-1.3312c-6.7584 121.088 30.72 225.8944 112.9472 314.3168z"
    fill="#C5DEFB" p-id="3601"></path>
  <path
    d="M563.2 42.8544a29.2864 29.2864 0 0 1 58.5216 0 29.2864 29.2864 0 1 1-58.5216 0z m51.712 0a22.4768 22.4768 0 1 0-22.4768 22.4768 22.6816 22.6816 0 0 0 22.3232-22.4768z m254.464 134.7072a23.1424 23.1424 0 1 1 23.1424 23.1424 23.3472 23.3472 0 0 1-23.296-23.1424z m39.4752 0a16.3328 16.3328 0 1 0-16.3328 16.3328 16.64 16.64 0 0 0 16.1792-16.3328zM435.2 458.5984A17.7152 17.7152 0 1 0 452.8128 476.16 17.7152 17.7152 0 0 0 435.2 458.5984z"
    fill="#3785E0" p-id="3602"></path>
  <path d="M237.824 646.4a32.6656 32.6656 0 1 0 32.6144 32.6144 32.6144 32.6144 0 0 0-32.6144-32.6144z" fill="#F06A6B"
        p-id="3603"></path>
  <path d="M382.0544 180.9408a16.3328 16.3328 0 0 0-32.6656 0 16.3328 16.3328 0 0 0 32.6656 0z" fill="#3785E0"
        p-id="3604"></path>
  <path
    d="M232.3456 414.3616a17.7152 17.7152 0 1 1 17.7152 17.7152 18.0224 18.0224 0 0 1-17.7152-17.7152z m28.5696 0a10.9056 10.9056 0 1 0-10.8544 10.9056A10.752 10.752 0 0 0 261.12 414.3616z"
    fill="#F45859" p-id="3605"></path>
  <path
    d="M544.6656 617.1136a20.48 20.48 0 0 1 20.48-20.48 20.9408 20.9408 0 0 1 20.48 20.48 20.48 20.48 0 1 1-40.96 0z m33.9968 0a13.6192 13.6192 0 1 0-13.568 13.6192 13.6192 13.6192 0 0 0 13.4656-13.6192z m88.4736-112.9472a3.072 3.072 0 0 0 4.096-2.048c6.8096-23.808 2.048-37.4272-14.2848-35.84a10.24 10.24 0 0 1-12.288-8.8576v-10.24l0.7168-1.3824a16.7936 16.7936 0 0 0 0-8.1408c-2.048-8.192-10.9056-12.2368-27.904-11.5712a3.4304 3.4304 0 1 0 0 6.8096c14.2848-0.6656 19.712 2.048 21.0944 6.0928a5.888 5.888 0 0 1 0 4.7616c-0.6656 0.7168-0.6656 0.7168-0.6656 1.3824v3.3792a24.6272 24.6272 0 0 0 0 10.24c1.9968 9.5232 8.1408 14.9504 19.712 14.2848 9.5232-0.6656 12.2368 6.8096 6.8096 27.1872-0.6656 1.2288 0.6656 3.2768 2.7136 3.9424z m127.232-263.9872a3.072 3.072 0 0 0 4.096-2.048c8.1408-28.5696 2.7136-44.2368-16.3328-42.8544-9.5232 0.6656-14.2848-3.3792-15.6672-10.9056a26.2656 26.2656 0 0 1 0-10.24v-2.7136s0.6656-2.7136 0.6656-2.048a21.2992 21.2992 0 0 0 0-9.5232c-1.9968-8.8576-12.2368-13.6192-32.6144-12.9536a3.2768 3.2768 0 0 0-3.4304 3.4304 3.2256 3.2256 0 0 0 3.4304 3.3792c17.664 0 25.1392 2.7136 26.5216 8.192a9.5232 9.5232 0 0 1 0 6.0928c-0.6656 0-0.6656 1.3824-0.6656 1.3824v4.096a35.072 35.072 0 0 0 0 12.2368c1.9968 11.5712 8.8064 17.664 22.4256 16.9984s16.3328 9.5232 9.5232 34.048c-0.6656 2.048 0.6656 3.8912 2.048 3.4304zM75.8784 536.1664c-0.7168 2.048 1.3312 3.3792 2.7136 4.096a3.072 3.072 0 0 0 4.096-2.048c6.8096-23.808 2.048-37.4272-14.2848-36.096A10.24 10.24 0 0 1 56.32 493.312v-10.24l0.7168-1.3312a16.9984 16.9984 0 0 0 0-8.192C54.784 465.408 46.08 461.312 28.928 461.9776a3.2768 3.2768 0 0 0-3.328 3.4304 3.2256 3.2256 0 0 0 3.4304 3.3792c14.2848-0.6656 19.712 2.048 21.0944 6.144a5.8368 5.8368 0 0 1 0 4.7616c-0.6656 0.6656-0.6656 0.6656-0.6656 1.3312v3.4304a24.4224 24.4224 0 0 0 0 10.24c1.9968 9.5232 8.1408 14.9504 19.712 14.2848 9.5232-0.6656 12.2368 6.8096 6.8096 27.2384z"
    fill="#3785E0" p-id="3606"></path>
  <path
    d="M901.888 372.8384a7.0656 7.0656 0 0 1-5.4784 8.192 69.632 69.632 0 0 0-27.1872 10.8544 68.2496 68.2496 0 0 0-19.7632 21.8112 7.6288 7.6288 0 0 1-4.7616 3.3792 7.0656 7.0656 0 0 1-8.1408-5.4272 69.1712 69.1712 0 0 0-10.9056-27.2384 67.3792 67.3792 0 0 0-21.8112-19.712 7.7824 7.7824 0 0 1-3.3792-4.7616 7.0144 7.0144 0 0 1 5.4272-8.192 68.864 68.864 0 0 0 27.1872-10.8544 67.4816 67.4816 0 0 0 19.7632-21.76 7.7312 7.7312 0 0 1 4.7616-3.4304 7.0144 7.0144 0 0 1 8.1408 5.4272 69.5808 69.5808 0 0 0 10.9568 27.0336 67.3792 67.3792 0 0 0 21.76 19.712 5.12 5.12 0 0 1 3.4304 4.9664z"
    fill="#F06A6B" p-id="3607"></path>
  <path
    d="M589.568 234.0352a27.4944 27.4944 0 0 1 4.096 2.048A6.6048 6.6048 0 0 1 593.92 245.76a40.96 40.96 0 0 0-9.5232 14.2848 47.5136 47.5136 0 0 0-3.4304 17.0496 5.7344 5.7344 0 0 1-2.048 4.0448 6.5024 6.5024 0 0 1-9.5232 0 40.448 40.448 0 0 0-14.5408-9.7792 47.0016 47.0016 0 0 0-16.9984-3.3792 5.8368 5.8368 0 0 1-4.096-2.048 6.6048 6.6048 0 0 1 0-9.5232 40.96 40.96 0 0 0 9.5232-14.2848 47.2576 47.2576 0 0 0 3.4304-16.9984 5.8368 5.8368 0 0 1 2.048-4.096 6.6048 6.6048 0 0 1 9.5232 0 39.7824 39.7824 0 0 0 14.2848 9.5232 47.0016 47.0016 0 0 0 16.9984 3.3792z"
    fill="#3785E0" p-id="3608"></path>
  <path
    d="M410.624 348.16a4.4544 4.4544 0 0 1 0 4.096 7.0656 7.0656 0 0 1-8.8576 4.0448 47.2576 47.2576 0 0 0-27.1872 0 4.1472 4.1472 0 0 1-4.096 0 7.0144 7.0144 0 0 1-4.096-8.8064 46.08 46.08 0 0 0 0-27.2384 4.4544 4.4544 0 0 1 0-4.096 7.0656 7.0656 0 0 1 8.8576-3.84 46.08 46.08 0 0 0 27.2384 0 4.096 4.096 0 0 1 4.0448 0 7.0144 7.0144 0 0 1 4.096 8.8064 46.08 46.08 0 0 0 0 27.2384z"
    fill="#F06A6B" p-id="3609"></path>
  <path
    d="M460.288 728.7296a5.12 5.12 0 0 1 1.3824 4.0448 6.8096 6.8096 0 0 1-6.8096 6.8096 45.0048 45.0048 0 0 0-13.6192 2.7136 27.4944 27.4944 0 0 0-12.2368 6.8096 9.2672 9.2672 0 0 1-4.096 1.3824 6.8096 6.8096 0 0 1-6.8096-6.8096 43.52 43.52 0 0 0-2.7136-13.6192 27.0336 27.0336 0 0 0-6.8096-12.2368 9.8816 9.8816 0 0 1-1.3312-4.096 6.8096 6.8096 0 0 1 6.7584-6.8096 43.52 43.52 0 0 0 13.6192-2.7136 26.5728 26.5728 0 0 0 12.2368-6.8096 10.24 10.24 0 0 1 4.096-1.3312 6.8096 6.8096 0 0 1 6.6048 6.8096 44.3904 44.3904 0 0 0 2.7136 13.568 27.9552 27.9552 0 0 0 6.8096 12.288zM148.48 422.5536a9.6768 9.6768 0 0 1 1.3312 4.0448A6.8096 6.8096 0 0 1 143.36 433.408a44.3904 44.3904 0 0 0-13.568 2.7136 27.9552 27.9552 0 0 0-12.288 6.8096 9.7792 9.7792 0 0 1-4.0448 1.3824 6.8096 6.8096 0 0 1-6.8096-6.8096 45.0048 45.0048 0 0 0-2.7136-13.6192 27.4944 27.4944 0 0 0-6.8096-12.2368 9.2672 9.2672 0 0 1-1.3824-4.096 6.8096 6.8096 0 0 1 6.656-6.8096 43.52 43.52 0 0 0 13.6192-2.7136 27.0336 27.0336 0 0 0 12.2368-6.8096 9.8816 9.8816 0 0 1 4.096-1.3312 6.8096 6.8096 0 0 1 6.8096 6.7584 42.9568 42.9568 0 0 0 2.7136 13.6192A26.5728 26.5728 0 0 0 148.48 422.5024z"
    fill="#3785E0" p-id="3610"></path>
  <path
    d="M263.68 267.4176a6.5024 6.5024 0 0 1-8.192 4.7616 43.6224 43.6224 0 0 0-9.728-1.3824 43.6224 43.6224 0 0 0-9.5232 1.3824 4.4544 4.4544 0 0 1-4.096 0 6.5024 6.5024 0 0 1-4.7616-8.192 43.2128 43.2128 0 0 0 1.3824-9.5232 44.0832 44.0832 0 0 0-1.3824-9.5232 4.4544 4.4544 0 0 1 0-4.096 6.5024 6.5024 0 0 1 8.192-4.7616 43.2128 43.2128 0 0 0 9.5232 1.3824 44.0832 44.0832 0 0 0 9.5232-1.3824 4.4544 4.4544 0 0 1 4.096 0 6.5024 6.5024 0 0 1 4.7616 8.192 43.2128 43.2128 0 0 0-1.3824 9.5232 44.0832 44.0832 0 0 0 1.3824 9.5232 4.4544 4.4544 0 0 1 0.2048 4.096z m297.984 236.0832c0.6656 1.3312 0.6656 2.7136 1.3824 3.3792a6.4 6.4 0 0 1-6.8096 6.8096 46.4896 46.4896 0 0 0-9.5232 1.3824 25.6 25.6 0 0 0-8.8576 4.096 5.12 5.12 0 0 1-3.3792 1.3312 6.4 6.4 0 0 1-6.8096-6.8096 40.96 40.96 0 0 0-1.3824-9.5232 25.9072 25.9072 0 0 0-4.096-8.8576 5.12 5.12 0 0 1-1.3312-3.3792 6.4 6.4 0 0 1 6.8096-6.8096 44.0832 44.0832 0 0 0 9.5232-1.3824 25.6 25.6 0 0 0 8.8576-4.0448 5.12 5.12 0 0 1 3.3792-1.3824 6.4 6.4 0 0 1 6.8096 6.8096 46.3872 46.3872 0 0 0 1.3312 9.5232 26.4704 26.4704 0 0 0 4.096 8.8576z"
    fill="#F06A6B" p-id="3611"></path>
  <path
    d="M724.2752 450.56a6.656 6.656 0 0 0 2.048-9.5232q-93.8496-145.92-57.1392-318.4128a6.9632 6.9632 0 0 0-13.6192-2.7136Q617.7792 297.472 714.752 448.512a6.656 6.656 0 0 0 9.5232 2.048z"
    fill="#C5DEFB" p-id="3612"></path>
  <path
    d="M1020.2624 915.1488l-84.3776 21.0944 9.5232 4.7616 78.2336-19.7632zM563.2 696.7296l-8.192 2.048 1.3824 6.0928 317.0816-78.8992-3.4304-6.144-306.8416 76.8z m98.6624-100.7104l174.08-43.52-3.4304-6.144-161.792 40.1408z m248.9856 104.0896l-3.3792-6.0928-299.52 73.984 9.5232 4.7616 293.2224-72.8064z m37.4272 73.5232l-3.3792-6.144-227.9424 56.32 9.5232 4.7616 221.7984-55.0912z m34.048 68.0448L826.368 880.64l9.5232 4.7616 150.3744-37.4272z"
    fill="#3785E0" p-id="3613"></path>
</svg>
