<svg t="1643189012608" class="icon" viewBox="0 0 1024 1024" version="1.1" xmlns="http://www.w3.org/2000/svg"
     p-id="11620" width="200" height="200">
  <path
    d="M912.244 230.695c-114.529-97.079-280.677-50.813-361.045 42.605-59.602-79.381-181.23-164.423-339.671-101.361-205.974 81.951-259.759 383.466 4.902 571.391 84.483 59.969 186.926 97.008 246.575 112.23 36.23 9.302 67.701 15.915 67.701 15.915s2.107-9.086 14.226-10.465c12.13-1.356 10.169-15.345 25.74-18.174 15.556-2.807 17.958-12.703 17.958-12.703s-175.165-28.38-314.753-138.613c-168.801-133.236-136.794-283.697-67.595-364.481 76.61-89.491 189.342-94.535 266.26-49.908 71.402 41.486 108.737 100.767 102.921 157.358-5.507 53.619-34.649 34.183-43.425 8.541-12.347-36.158 3.995-64.132 9.017-76.907-9.586-13.417-18.711-24.834-30.236-33.518-10.405 19.887-23.075 47.41-17.198 82.736 9.171 55.14 74.172 90.822 93.631 37.586 9.55-26.191 15.546-78.478-6.708-130.526 37.573-35.825 86.54-67.178 169.013-50.787 77.538 15.367 139.982 103.43 106.442 205.339-42.081 127.886-173.844 126.505-173.844 126.505s0.69 31.424-13.357 46.769c-23.074 25.167-4.127 41.794-14.676 54.974-10.443 13.178-2.711 49.812-2.711 49.812s110.127-17.222 214.663-93.344c121.331-88.35 180.67-316.955 46.173-430.971z"
    fill="#D8AA86" p-id="11621"></path>
</svg>
