<svg t="1640857516566" class="icon" viewBox="0 0 1024 1024" version="1.1" xmlns="http://www.w3.org/2000/svg"
     p-id="26560" width="200" height="200">
  <path d="M301.56 487.57m-26.9 0a26.9 26.9 0 1 0 53.8 0 26.9 26.9 0 1 0-53.8 0Z" p-id="26561"></path>
  <path d="M727.2 488.58m-26.9 0a26.9 26.9 0 1 0 53.8 0 26.9 26.9 0 1 0-53.8 0Z" p-id="26562"></path>
  <path
    d="M770.8 301.71a98.33 98.33 0 1 0-99.48-130.6c-42.41-18.83-97.22-28.74-159.32-28.74-64.67 0-118.44 9.06-160 27a98.3 98.3 0 1 0-98.7 132.38l-65.66 284.36c-23.18 101.18-14 178.77 27.33 230.61 48.44 60.79 129.18 69.87 173 69.87h52.63V894a24.8 24.8 0 0 0 24.77 24.77h29.93a24.67 24.67 0 0 0 16.7-6.5 24.67 24.67 0 0 0 16.7 6.5h29.95A24.8 24.8 0 0 0 583.39 894v-7.38h53.87c43.81 0 124.55-9.08 173-69.86 41.31-51.85 50.51-129.44 27.33-230.66z m-275.52 601h-29.94a8.71 8.71 0 0 1-8.7-8.7v-8.61a77.27 77.27 0 0 0 47.26-28.84V894.83a8.71 8.71 0 0 1-8.62 7.83z m63.35 0h-29.95a8.71 8.71 0 0 1-8.65-7.87v-38.33a77.27 77.27 0 0 0 47.28 28.84V894a8.71 8.71 0 0 1-8.69 8.66zM799 805l-56.39-32.83A8 8 0 0 0 734.5 786l53.76 31.3c-44.89 46-112.86 53.16-151 53.16h-56.19a61.18 61.18 0 0 1-61-59.79v-4.85a8.13 8.13 0 0 0-0.06-1v-85.5a26.9 26.9 0 1 0-16.07 0v91.35a61.18 61.18 0 0 1-61 59.79h-54.99c-38.19 0-106.28-7.23-151.17-53.33L290.26 786a8 8 0 0 0-8.1-13.89l-56.07 32.65q-25.86-33.59-32.53-83.08h81.11a8 8 0 0 0 0-16.07h-82.74q-3.52-50.71 11.37-115.94l67.95-294.18 1.1-10.47-12.42 0.8a82.26 82.26 0 1 1 79.41-103.4l2.5 9.38 8.74-4.2C391 168.27 445.32 158.44 512 158.44c63.93 0 119.54 10.76 160.83 31.11l9 4.44 2.37-9.75a82.21 82.21 0 0 1 162.13 19.36c0 45.32-36.84 82.19-83.6 82.19h-0.13l-12.15-0.45 71.47 304.36q14.92 65.17 11.36 116H750.1a8 8 0 0 0 0 16.07h81.57Q825 771.26 799 805z"
    p-id="26563"></path>
  <path
    d="M299.31 211.2a8 8 0 1 0 15.23-5.13c-16.57-49.14-59.38-49.92-79.67-43.45a8 8 0 0 0 4.85 15.33c4.45-1.41 44.21-12.29 59.59 33.25zM714.28 216.24a8 8 0 0 0 10.19-5c15.37-45.53 55.16-34.66 59.6-33.25a8 8 0 0 0 4.85-15.33c-20.34-6.5-63.1-5.72-79.67 43.45a8 8 0 0 0 5.03 10.13z"
    p-id="26564"></path>
</svg>
