<svg t="1643188637042" class="icon" viewBox="0 0 1024 1024" version="1.1" xmlns="http://www.w3.org/2000/svg" p-id="1938"
     width="200" height="200">
  <path
    d="M94.8992 479.8208a15.0016 15.0016 0 0 0 10.5984-25.6l-19.328-19.328A192.2048 192.2048 0 1 1 357.9904 163.0976l65.6896 65.6896a15.0016 15.0016 0 0 0 21.2224 0l65.6896-65.6896a191.5904 191.5904 0 0 1 246.8608-21.0432 15.0016 15.0016 0 0 0 17.3568-24.4736 222.2336 222.2336 0 0 0-285.44 24.2944l-55.0912 55.0912-55.0912-55.0912A222.208 222.208 0 0 0 64.9728 456.1152l19.328 19.328a14.9504 14.9504 0 0 0 10.5984 4.4032z"
    p-id="1939" fill="#D8AA86"></path>
  <path
    d="M1008.9728 698.0608H962.048a96.4096 96.4096 0 0 0-63.6672 23.9872l-180.7872 158.72a93.3888 93.3888 0 0 1-61.6704 23.2448H344.192l-164.6848-30.592a37.376 37.376 0 1 1 13.696-73.4464l145.408 27.1872a15.0016 15.0016 0 0 0 2.7648 0.256h69.9392l113.92 33.4336a82.816 82.816 0 0 0 71.68-10.7264l179.712-122.7264a15.0016 15.0016 0 1 0-16.9216-24.7808l-179.712 122.7264a52.9408 52.9408 0 0 1-45.9264 6.8352h-0.256l-148.6592-43.52a43.0592 43.0592 0 0 1 20.48-83.584l115.0464 22.4512a15.0016 15.0016 0 0 0 16.4096-8.2688 853.632 853.632 0 0 1 78.2336-127.616c42.24-56.32 106.6752-123.4176 173.696-123.4176h220.16a15.0016 15.0016 0 0 0 0-30.0032h-189.44a221.7728 221.7728 0 0 0 9.3184-265.8048 15.0016 15.0016 0 1 0-24.6272 17.1264 192 192 0 0 1-21.9136 245.376l-3.584 3.6096c-130.0736 9.856-238.8992 208.3328-263.808 257.2544l-103.808-20.2752a72.704 72.704 0 0 0-64.9728 19.4048l-190.0032-189.8752a15.0016 15.0016 0 0 0-21.2224 21.2224l98.176 98.1504a67.2768 67.2768 0 0 0-68.224 71.9872l-1.92-0.3584a67.328 67.328 0 0 0-42.5984 126.3616 67.3536 67.3536 0 0 0 53.4784 80.4608l166.0416 30.72a14.976 14.976 0 0 0 2.7392 0.256h313.1136a123.3664 123.3664 0 0 0 81.4592-30.72l180.7872-158.72a66.56 66.56 0 0 1 43.8528-16.5376h46.9504a15.0016 15.0016 0 1 0 0-30.0032z m-666.24 99.5072l-143.8976-27.0336a67.3536 67.3536 0 0 0-65.4592 24.7296 37.3504 37.3504 0 0 1 24.3456-69.7344l48.8192 9.1392a15.0016 15.0016 0 1 0 5.504-29.4912l-15.5648-2.9184a37.3504 37.3504 0 0 1 48.64-45.568l32.3072 11.8016 51.8656 51.8656-0.9472 2.56h-21.12l-24.9344-4.6592a15.0016 15.0016 0 1 0-5.504 29.4912l26.2912 4.9152a15.0016 15.0016 0 0 0 2.7648 0.256h18.432a71.3472 71.3472 0 0 0 18.4064 44.4672z"
    p-id="1940" fill="#D8AA86"></path>
  <path
    d="M357.76 271.232a54.9888 54.9888 0 1 0 61.6192 47.4112 55.04 55.04 0 0 0-61.6192-47.4112z m10.24 79.36a24.9856 24.9856 0 1 1-6.4512-49.536 24.704 24.704 0 0 1 3.2512-0.2048 24.9856 24.9856 0 0 1 3.2 49.7408z"
    p-id="1941" fill="#D8AA86"></path>
  <path
    d="M481.4592 255.104a54.9888 54.9888 0 0 0 6.9888 109.4912 56.32 56.32 0 0 0 7.2192-0.4608 55.04 55.04 0 0 0 47.4112-61.6192 55.04 55.04 0 0 0-61.6192-47.4112z m10.24 79.36a24.9856 24.9856 0 1 1 21.5552-27.9808 25.0112 25.0112 0 0 1-21.5552 27.9808z"
    p-id="1942" fill="#D8AA86"></path>
  <path
    d="M288.128 377.2928a54.9888 54.9888 0 0 0 6.9888 109.4912 56.32 56.32 0 0 0 7.2192-0.4608 55.04 55.04 0 0 0 47.4368-61.6192 55.04 55.04 0 0 0-61.6448-47.4112z m31.8464 51.2a24.96 24.96 0 1 1-24.7552-21.76 25.0112 25.0112 0 0 1 24.7552 21.76z"
    p-id="1943" fill="#D8AA86"></path>
  <path
    d="M590.08 448.8704a54.9376 54.9376 0 1 0-7.1424 0.4608 56.064 56.064 0 0 0 7.1424-0.4608z m-31.872-51.2a24.96 24.96 0 0 1 21.5296-27.9808 25.6 25.6 0 0 1 3.2768-0.2048 24.9856 24.9856 0 0 1 24.704 21.76 24.9856 24.9856 0 1 1-49.536 6.4512z"
    p-id="1944" fill="#D8AA86"></path>
  <path
    d="M411.8272 607.8464h4.1984a70.6304 70.6304 0 0 0 29.8752-8.576 47.4112 47.4112 0 0 1 34.176-4.4544 70.9888 70.9888 0 0 0 51.4816-130.9952 46.4384 46.4384 0 0 1-22.3488-27.264 70.9888 70.9888 0 0 0-139.008 21.632A47.3344 47.3344 0 0 1 358.4 490.2912a70.5536 70.5536 0 0 0-15.9488 61.44 71.3216 71.3216 0 0 0 69.376 56.1664z m-30.9248-98.048a77.2608 77.2608 0 0 0 19.2-52.4288 40.96 40.96 0 0 1 40.96-41.7536 40.96 40.96 0 0 1 39.1936 29.2608 76.288 76.288 0 0 0 36.5312 44.9536 40.96 40.96 0 0 1-29.696 75.648 77.3376 77.3376 0 0 0-55.7568 7.2448 40.96 40.96 0 0 1-50.432-62.9248z"
    p-id="1945" fill="#D8AA86"></path>
</svg>
