<svg t="1639979347976" class="icon" viewBox="0 0 1024 1024" version="1.1" xmlns="http://www.w3.org/2000/svg" p-id="1773" width="200" height="200"><path d="M282.4 542c-26.9-28.8-72.6-30.4-101.4-3.5L163.3 555c-53.5-81.1-103.9-206.8-13.4-321.5 45-57 97.5-84.1 156.7-80.2 90.7 5.9 172.6 84 191.4 115.5 3.1 5.3 8.7 8.5 14.9 8.7 5.9 0.1 11.9-2.8 15.4-7.8 0.6-0.9 64.3-92.5 159.9-107.2 52.8-8.1 109.2 11.3 162 52.4l0.1-0.1c3.2 2.8 7.2 4.6 11.7 4.6 9.9 0 17.9-8 17.9-17.9 0-5.2-2.3-9.8-5.8-13.1l0.1-0.1c-1.1-0.9-2.1-1.9-3.2-2.8-61.6-48.6-125.1-68.3-188.5-58.4-82.3 12.7-141.9 71.3-168.5 102.7-37.1-44.7-116.5-106.6-205-112.3-71.4-4.7-134.4 26.9-187.1 93.8-106.4 134.6-44.8 279.8 15.8 369.4-20.5 27.3-19.3 66.3 4.7 92l58.5 62.6c26.9 28.8 72.6 30.4 101.4 3.5l35.1-32.7c28.8-26.9 30.4-72.6 3.5-101.4L282.4 542zM958.9 340.1c0-0.1 0-0.1 0 0v-0.4h-0.1c-0.9-9.7-9.3-17-19-16.3-9.9 0.7-17.3 9.2-16.7 19.1 0 0.2 0.2 0.4 0.2 0.7h-0.1c4.4 36.2-0.6 74.8-15 119-26.9 82.6-78 148.3-78.9 149.5-0.6 0.8-49.4 68.1-104.9 106.2-20.1-52.8-71-90.3-130.8-90.3-77.3 0-140.1 62.7-140.1 140.1 0 77.3 62.7 140.1 140.1 140.1s140-62.8 140-140.2c0-4.2-0.3-8.4-0.6-12.5 65.9-40.4 122.6-118.6 124.9-121.8 1.6-2.1 117-149.4 101-293.2z" fill="#ffffff" p-id="1774"></path></svg>
