<svg t="1639979124949" class="icon" viewBox="0 0 1024 1024" version="1.1" xmlns="http://www.w3.org/2000/svg" p-id="4351" width="200" height="200"><path d="M720.5 474.1c3.2 2.6 7.1 3.9 11 3.9 3.1 0 6.3-0.9 9-2.5 8.9-5.4 217.6-133.7 208.6-266.1-3.4-50.7-28.2-86.6-69.9-101.2-47-16.4-110.1-1.8-150.1 33.2-24.6-14.5-81.8-43.1-131.7-32.4-25.6 5.5-45.9 20.2-60.2 43.6-66.9 109.6 26 193.5 183.3 321.5zM567 170.9c9.2-15.1 21.5-24.1 37.6-27.6 5.3-1.2 10.8-1.7 16.4-1.7 46.8 0 100 35.9 100.6 36.4 7.2 4.9 16.9 3.8 22.8-2.6 29.5-32.2 84.7-47.5 123.2-34.1 28.4 9.9 44.1 33.6 46.6 70.5 6.5 96.4-140.7 200.3-181.5 227.2-156-127.4-214.1-188.7-165.7-268.1zM877 572.7c-2.4 0.2-4.8 0.9-6.9 2L560.8 738.6c-45.3-13.8-92.5-28.9-128.3-41 26.6-9.2 46.3-23.8 55.5-31.4h116.9c3.5 0 6.9-1 9.8-3 34.8-23.6 50.9-47.9 47.8-72.2-4.5-35.2-47-51.2-51.8-52.9-1.6-0.6-3.2-0.9-4.9-1l-401-22.1c-7.1-21.3-26.9-36.7-50.5-36.7H91.6c-9.7 0-17.5 7.8-17.5 17.5s7.8 17.5 17.5 17.5h62.7c10.2 0 18.5 8.3 18.5 18.4v311.9c0 10.2-8.3 18.4-18.5 18.4H91.6c-9.7 0-17.5 7.8-17.5 17.5S81.9 897 91.6 897h62.7c22.3 0 41.4-13.7 49.4-33.1 66.9 12.6 309 58.2 337.8 60.8 3 0.3 5.9 0.4 8.8 0.4 34 0 58-17.7 58.9-18.4l320.5-232.3c2.1-1.5 3.9-3.6 5.1-5.9 15.8-29.1 17.9-53 6.3-70.9-17.9-27.5-59.4-25.3-64.1-24.9z m28.8 76l-317.3 230c-0.2 0.2-19 13.5-43.9 11.4-23.9-2.2-223.1-39.3-336.9-60.8v-279L601.1 572c9.7 4 25.4 13.8 26.6 23.5 1.1 8.9-9.4 22.1-28.4 35.7h-118c-4.6 0-8.9 1.8-12.2 5-0.4 0.4-41.6 40.1-94.7 34.2-6.2-0.7-25.3-2.7-28.8 14.4-3.7 18.2-4.8 23.7 211.9 89.5 4.4 1.3 9.2 0.9 13.3-1.3l312.1-165.4c9 0 24.3 2.1 28.9 9.2 3.6 5.6 1.4 17.1-6 31.9z" fill="#ffffff" p-id="4352"></path></svg>
