<svg t="1639979240136" class="icon" viewBox="0 0 1024 1024" version="1.1" xmlns="http://www.w3.org/2000/svg" p-id="1405" width="200" height="200"><path d="M960.4 339.7c-0.1-0.5-0.1-1-0.2-1.5v-0.2c0-0.1-0.1-0.1-0.1-0.2-1.2-10.8-2.7-20.2-5.4-30.9-31.9-127.5-104.5-169-159.8-181.5-106.3-23.9-227.3 38.5-281.3 96.5-81-81.9-206.8-122-302.9-94.2-80.5 23.4-131.9 90.7-145 190-0.8 8-1.3 15.9-1.4 24h0.1c0 0.1-0.1 0.2-0.1 0.4 0 10 8.1 18.1 18.1 18.1 9.9 0 18.1-8.1 18.1-17.9 0.2-6.3 0.6-14 1.2-20.3 11.2-84.9 52.4-140 119.1-159.4 17-4.9 35.3-7.3 54.2-7.3 80.3 0 172.6 42.4 229.5 110.5l204.2 215.1c6.9 7.3 18.4 7.6 25.6 0.7 7.3-6.9 7.6-18.4 0.7-25.6L538.3 248.7C583.7 198.1 693.9 140 787 160.8c66 14.8 110.6 66.9 132.6 154.9 2.1 8.3 3.7 19.1 4.7 27.5 1.4 9.9 10.6 16.8 20.5 15.4 9.3-1.3 15.8-9.6 15.3-18.8l0.3-0.1z" fill="#ffffff" p-id="1406"></path><path d="M923.1 471.8c-9.1-4.3-19.9-0.3-24.1 8.7-27.8 61.7-74.5 122.4-125.6 175.6L546.5 431c-7.1-7-18.6-7-25.7 0.1-7 7.1-7 18.6 0.1 25.6l226.9 225.2c-14.9 14.5-30 28.4-45 41.7L567 584c-7-7.2-18.5-7.3-25.6-0.4-7.2 7-7.3 18.5-0.4 25.6l134.4 138.1c-13.2 11.1-26.1 21.6-38.6 31.4L506.1 646.5c-7-7.1-18.5-7.2-25.7-0.2-7.1 7-7.2 18.5-0.2 25.6l127.5 129.2c-14.2 10.7-27.5 20.4-39.4 28.8L438.1 696.2c-7-7.2-18.5-7.3-25.6-0.3-7.2 7-7.3 18.5-0.3 25.6l126 129.3c-8.7 5.9-16 10.6-21.1 13.9-51-31.1-296.1-190.3-385.1-382.4v-0.2l-0.1-0.1-0.3-0.6-0.1 0.1c-4.8-8.4-15.1-11.9-23.8-7.6-8.4 4.2-11.9 14-8.7 22.6l-0.2 0.1 0.6 1.2c0.1 0.1 0 0.3 0.1 0.4 0.1 0.1 0.2 0.2 0.2 0.3C134 573.3 192.8 649.8 276.9 728c112.3 104.5 226.4 171 231.2 173.7 2.8 1.6 6 2.4 9.1 2.4 3.3 0 6.5-0.9 9.4-2.7 5.1-3.1 125.3-76.9 239-186 7.1-6.8 13.8-13.6 20.6-20.4 0.1-0.1 0.3-0.2 0.5-0.3 0.1-0.1 0.2-0.3 0.3-0.4 68.5-69.1 116.4-135 144.7-198.3 0-0.1 0.1-0.1 0.1-0.2v-0.2l0.3-0.6h-0.1c3.5-8.9-0.1-19.1-8.9-23.2z" fill="#ffffff" p-id="1407"></path></svg>
