<svg t="1642579589546" class="icon" viewBox="0 0 1115 1024" version="1.1" xmlns="http://www.w3.org/2000/svg" p-id="1998"
     width="200" height="200">
  <path
    d="M933.933511 61.6448a112.389689 112.389689 0 0 0-76.891022 30.72l-46.830933 43.235556-45.8752-43.463112a112.366933 112.366933 0 0 0-76.731734-30.606222c-30.037333 0-58.1632 11.992178-79.6672 34.065067a121.628444 121.628444 0 0 0-34.292622 85.515378c0 32.517689 12.174222 62.737067 34.269867 85.469866l202.911289 208.531911 1.2288-1.274311a5587552.529067 5587552.529067 0 0 0 201.432177-206.984533 121.810489 121.810489 0 0 0 34.520178-85.742933 121.742222 121.742222 0 0 0-34.338133-85.447111 110.000356 110.000356 0 0 0-79.735467-34.019556z m124.131556-8.760889a183.136711 183.136711 0 0 1 51.700622 128.227556c0 48.446578-18.386489 94.048711-51.700622 128.318577l-210.716445 216.541867a50.5856 50.5856 0 0 1-73.045333 0l-210.7392-216.541867a183.022933 183.022933 0 0 1-51.700622-128.341333c0-48.446578 18.386489-94.025956 51.700622-128.295822C596.673422 18.818844 640.750933 0 687.604622 0c44.100267 0 86.402844 16.839111 119.102578 47.377067l4.050489 3.822933 4.073244-3.731911A174.262044 174.262044 0 0 1 933.933511 0.091022c46.944711 0 91.022222 18.727822 124.131556 52.792889z m-357.489778 46.193778a86.789689 86.789689 0 0 0-86.880711 86.562133c0 16.9984 13.812622 30.765511 30.879289 30.765511s30.879289-13.767111 30.879289-30.765511c0-13.767111 11.309511-25.031111 25.099377-25.031111 17.066667 0 30.902044-13.767111 30.902045-30.742755 0-16.9984-13.835378-30.788267-30.902045-30.788267z m275.205689 600.746667c52.269511 7.873422 95.618844 30.151111 128.273066 66.605511a42.985244 42.985244 0 0 1-7.395555 63.943111C912.907378 959.0784 777.693867 1024 684.600889 1024c-63.146667 0-145.066667-20.184178-230.991645-53.885156-69.404444-27.2384-135.509333-61.257956-178.540088-91.704888H43.235556c-23.893333 0-43.235556-19.273956-43.235556-43.053512V575.601778c0-18.796089 12.242489-35.4304 30.264889-41.073778 348.9792-109.454222 618.518756-51.905422 799.015822 174.626133 54.840889-12.515556 103.606044-15.746844 146.500267-9.329777z m-148.184178 98.531555c-130.685156 35.043556-250.493156 17.180444-356.033422-53.703111a42.985244 42.985244 0 0 1-11.6736-59.8016 43.326578 43.326578 0 0 1 60.029155-11.628089c64.512 43.326578 134.690133 61.713067 212.036267 55.068445-150.186667-161.496178-362.951111-202.205867-645.484089-120.695467v184.684089h202.865778c9.602844 0 18.955378 3.185778 26.532978 9.079466 34.679467 26.874311 100.101689 61.394489 169.415111 88.587378 76.731733 30.1056 148.980622 47.900444 199.338666 47.900445 62.555022 0 168.186311-47.650133 312.274489-143.724089-40.072533-16.270222-95.800889-15.473778-169.301333 4.232533z"
    fill="#1296db" p-id="1999"></path>
</svg>
