<svg t="1640075403331" class="icon" viewBox="0 0 1024 1024" version="1.1" xmlns="http://www.w3.org/2000/svg" p-id="4394" width="200" height="200"><path d="M685.609489 1022.998699H316.394943c-17.247401 0-31.279627-13.008896-31.279627-28.999665V304.882991l-1.544006-86.825772a18.276738 18.276738 0 0 1 10.20125-16.72272l195.035317-96.033731a18.279742 18.279742 0 0 1 15.714411-0.206268l198.366644 91.276552a18.275737 18.275737 0 0 1 10.634813 16.279144l1.187542 66.679605a27.16328 27.16328 0 0 1 2.176827 10.687882v703.982352c0 15.989768-14.031224 28.998664-31.278625 28.998664z m-363.936691-36.555479h358.659837V292.686149a18.283747 18.283747 0 0 1-2.092718-8.16861l-1.063381-59.736587-180.029828-82.837592-176.819658 87.064081 1.341742 75.387916c0.002003 0.10814 0.003004 0.217282 0.003004 0.325423v681.72244z" p-id="4395" fill="#ffffff"></path><path d="M500.22771 504.884759c-62.200788 0-112.805515-50.604727-112.805515-112.806517s50.604727-112.806516 112.805515-112.806516 112.806516 50.603726 112.806516 112.805515S562.428498 504.884759 500.22771 504.884759z m0-189.056552c-42.043607 0-76.250036 34.205427-76.250036 76.249034 0 42.044609 34.206428 76.251037 76.250036 76.251037 42.044609 0 76.249034-34.206428 76.249034-76.251037 0-42.043607-34.204426-76.249034-76.249034-76.249034z" p-id="4396" fill="#ffffff"></path><path d="M240.072813 17.781095c-5.374981 11.905463-6.595567 23.879015-3.346346 36.632579 2.741561 10.758974 8.506048 20.910159 14.962434 29.855778 16.920977 23.445452 38.570096 42.987834 60.340371 61.81028 25.204737 21.793306 51.263583 42.574297 76.537409 64.287499 23.698781 20.360445 47.226339 41.48388 66.99101 65.781439a245.859329 245.859329 0 0 1 2.0787 2.598375c2.949831 3.728843-2.595371-3.398414-0.622809-0.812055a201.463667 201.463667 0 0 1 4.258531 5.812549 161.221399 161.221399 0 0 1 7.447673 11.528974 118.894423 118.894423 0 0 1 5.882641 11.37878c1.782315 3.954136-1.85541-4.512861-0.68489-1.653148a88.821364 88.821364 0 0 1 1.196555 3.117049 80.58066 80.58066 0 0 1 1.798335 5.572237c0.463602 1.620104 0.851105 3.261236 1.198557 4.910378 0.170221 0.810052 0.313407 1.624109 0.452588 2.440169 0.720936 4.212471-0.685891-5.910677-0.222289-1.685188 0.39251 3.573642 0.395514 7.181327 0.072094 10.758974-0.364473 4.06528 0.795033-5.374981 0.34645-2.37909a49.086755 49.086755 0 0 1-0.54671 2.923797c-0.373485 1.764292-0.875137 3.498544-1.438869 5.209767-0.25433 0.772003-0.540702 1.533992-0.832081 2.292978-0.857113 2.237907 2.615397-5.800534 0.543706-1.370781-0.813056 1.736255-1.749272 3.413433-2.736554 5.056568-5.630313 9.359156-2.137777 21.938494 7.184331 27.399587 9.506347 5.569233 21.783293 2.152796 27.399588-7.184331 32.172787-53.482465-17.142265-110.114019-53.619643-145.713256-46.329174-45.214726-100.010897-82.187748-146.129798-127.597728-6.488427-6.388297-12.758571-13.009898-18.603162-19.99497-1.312705-1.568037-6.3132-7.973356-1.279662-1.449883a142.971696 142.971696 0 0 1-3.581652-4.865319 105.74935 105.74935 0 0 1-5.976763-9.4703 77.405536 77.405536 0 0 1-2.112744-4.092316 66.519397 66.519397 0 0 1-0.925202-2.01762c-1.013316-2.285969 2.418141 6.04385 0.802042 1.792328a45.840539 45.840539 0 0 1-2.368076-8.706308c-0.465605-2.780612 0.780013 6.584552 0.414539 2.978869a34.334595 34.334595 0 0 1-0.13818-2.312003 30.435531 30.435531 0 0 1 0.170221-4.075293c-0.896164 8.699299-0.476619 3.184136 0.129168 0.926203 0.155202-0.579753 0.343446-1.150494 0.536697-1.719233 1.343745-3.962146-1.995592 4.463798-0.995292 2.248921 4.491834-9.949923 2.957842-21.45787-7.184332-27.399588-8.665255-5.076594-22.904749-2.767595-27.398586 7.184332z" p-id="4397" fill="#ffffff"></path></svg>
