<svg t="1643360016981" class="icon" viewBox="0 0 1024 1024" version="1.1" xmlns="http://www.w3.org/2000/svg"
     p-id="24764" width="200" height="200">
  <path
    d="M480.2 921.5c-11.2 0-22.4-2.8-32.4-8.6C342.5 852.4 34.1 605.1 25.3 385.5c-3-76.7 24.4-149.4 77.4-204.5 50.5-52.6 120-82.8 190.6-82.8 69.9 0 136 28.6 186.3 80.6 0.5 0.6 1.2 0.7 1.7 0.7s1.2-0.1 1.7-0.7c50.2-51.9 116.4-80.6 186.2-80.6 77.7 0 155.4 36 208 96.2 48.1 55.1 69.4 123.6 59.9 192.8-30.6 223.6-303 454.1-422.5 524.9-10.6 6.3-22.5 9.4-34.4 9.4zM293.3 133.1c-61.1 0-121.5 26.3-165.5 72.1-46.4 48.2-70.4 111.8-67.7 179 7.7 193.8 289 431.9 405.1 498.6 9.6 5.5 21.7 5.3 31.7-0.6 128-75.8 378.5-300.2 405.8-499.6 8.1-59-10.3-117.7-51.7-165.1-46-52.8-114-84.3-181.7-84.3-60.3 0-117.6 24.8-161.2 69.9-7 7.2-16.7 11.3-26.7 11.3-10.2 0-19.7-4-26.7-11.3-43.8-45.2-101-70-161.4-70z"
    fill="#5ec231" p-id="24765"></path>
</svg>
