<svg t="1641972681830" class="icon" viewBox="0 0 1024 1024" version="1.1" xmlns="http://www.w3.org/2000/svg"
     p-id="14354" width="200" height="200">
  <path d="M512 288a160 160 0 1 0 0 320 160 160 0 0 0 0-320z m-96 160a96 96 0 1 1 192 0 96 96 0 0 1-192 0z"
        fill="#5ec231" p-id="14355"></path>
  <path
    d="M492.8 969.6l19.2-25.6-19.2 25.6 19.2 14.4 19.2-14.4-19.2-25.6 19.2 25.6h0.032l0.064-0.096 0.224-0.16 0.8-0.608 2.88-2.24a1109.184 1109.184 0 0 0 47.968-40.032 1235.488 1235.488 0 0 0 112.96-113.472C777.248 719.776 864 588.16 864 448c0-194.4-157.6-352-352-352S160 253.6 160 448c0 140.16 86.784 271.776 167.84 364.992a1235.488 1235.488 0 0 0 150.304 145.088 757.12 757.12 0 0 0 13.536 10.656l0.768 0.64 0.256 0.128 0.064 0.096zM224 448a288 288 0 1 1 576 0c0 115.84-73.216 232.224-152.16 323.008A1172.576 1172.576 0 0 1 512 903.104a1172.576 1172.576 0 0 1-135.84-132.096C297.216 680.224 224 563.84 224 448z"
    fill="#5ec231" p-id="14356"></path>
</svg>
