<svg t="1640856619137" class="icon" viewBox="0 0 1024 1024" version="1.1" xmlns="http://www.w3.org/2000/svg" p-id="1403"
     width="200" height="200">
  <path
    d="M394.927119 361.941356c-65.98176 0-128.025838 25.692149-174.679391 72.346725-96.296183 96.311533-96.296183 253.015527 0.01535 349.310687 46.653553 46.654576 108.682281 72.332399 174.647669 72.332399 65.965387 0 127.994116-25.693172 174.664042-72.346725 96.29516-96.296183 96.29516-252.984828 0-349.295338C522.936585 387.634528 460.90888 361.941356 394.927119 361.941356zM535.774985 749.783615c-37.627992 37.627992-87.658456 58.341756-140.863215 58.341756-53.204759 0-103.220896-20.712741-140.847865-58.325383-77.667917-77.667917-77.667917-204.043163-0.016373-281.712103 37.627992-37.619806 87.659479-58.33971 140.879588-58.33971 53.204759 0 103.219873 20.719904 140.847865 58.33971C613.427552 545.755802 613.427552 672.131047 535.774985 749.783615z"
    p-id="1404" fill="#1296db"></path>
  <path
    d="M868.171444 135.676076c-4.482081-4.481058-10.565636-7.002484-16.899902-7.002484l-329.066621 0.01535c-13.196557 0-23.902386 10.706853-23.902386 23.902386 0 13.20372 10.706853 23.902386 23.902386 23.902386l305.164235-0.016373 0 305.179584c0 13.204743 10.705829 23.902386 23.902386 23.902386 13.196557 0 23.902386-10.698666 23.902386-23.902386L875.173928 152.575977C875.174951 146.234549 872.653525 140.158157 868.171444 135.676076z"
    p-id="1405" fill="#1296db"></path>
</svg>
