<svg t="1642497495779" class="icon" viewBox="0 0 1706 1024" version="1.1" xmlns="http://www.w3.org/2000/svg" p-id="3016"
     width="200" height="200">
  <path
    d="M932.7685491 406.17543399c50.47344022 0 90.34321672-29.26611273 109.85395834-43.26294886 2.96902574-2.1207325 5.51390551-4.24146563 7.21049138-5.08975888 3.81731899-2.1207325 5.93805213-6.36219811 5.93805212-11.02781036 0-4.24146563-2.54487911-8.48293125-6.36219872-10.60366439s-8.48293125-2.1207325-12.30024962 0c-2.1207325 1.27243987-5.08975886 3.39317238-9.33122451 6.36219877-17.39000911 12.72439688-53.01831998 38.59733661-95.4329756 38.59733659-6.78634474 0-12.30025026 5.51390551-12.30025025 12.30025025 0.42414663 7.21049136 5.93805213 12.72439688 12.72439686 12.72439688zM798.73823694 682.294843c-0.84829324 2.96902574-0.84829324 6.78634474 0.84829261 9.3312245 2.96902574 5.93805213 10.60366373 8.48293125 16.9658625 5.51390486l68.7117426-34.7800176 78.46711308 35.20416422c2.96902574 1.27243987 6.36219811 1.69658651 9.33122447 0.42414663 2.96902574-1.27243987 5.51390551-3.39317238 6.78634479-6.36219811 1.27243987-2.96902574 1.27243987-6.36219811 0.42414661-9.3312245-1.27243987-2.96902574-3.39317238-5.51390551-6.36219874-6.78634475l-83.98101799-37.749044c-3.39317238-1.69658651-7.21049136-1.27243987-10.60366437 0.42414664l-74.22564744 37.74904399c-2.96902574 0.84829324-5.08975886 3.39317238-6.36219812 6.36219812zM728.75405444 357.82272625c1.69658651 0.84829324 4.24146563 2.96902574 7.21049201 5.08975889 19.51074162 13.99683612 59.80466471 43.26294886 109.85395833 43.26294885 6.78634474 0 12.72439688-5.51390551 12.72439687-12.72439688 0-6.78634474-5.51390551-12.30025026-12.30025024-12.30025025-42.41465561 0-78.04296646-26.29708636-95.43297558-38.59733659-2.96902574-2.1207325-5.93805213-4.24146563-9.3312245-6.36219876-5.93805213-2.96902574-13.14854349-0.84829324-16.11756925 4.66561225-3.39317238 5.93805213-1.69658651 13.14854349 3.39317236 16.96586249z"
    fill="#5ec231" p-id="3017"></path>
  <path
    d="M1244.09212237 212.76460368H526.01200028c-28.84196611 0-52.17002673 23.32806062-52.17002671 52.17002609v494.55488645c0 28.41781949 23.32806062 52.17002673 52.17002671 52.17002673H1248.33358798c27.14537962-2.1207325 48.35270774-24.60050049 48.35270773-51.74588011V264.93462977C1296.26214911 236.0926643 1272.93408849 212.76460368 1244.09212237 212.76460368z m27.14537961 546.30076655c0 13.99683612-10.60366373 25.44879374-24.17635387 26.72123298h-721.04914783c-7.21049136 0-13.99683612-2.96902574-19.08659562-8.05878463-5.08975886-5.08975886-8.05878463-11.87610362-8.05878461-19.08659498V264.51048379c0-14.84512935 12.30025026-27.14537962 27.14538023-27.14538023h718.50426872c14.84512935 0 27.14537962 12.30025026 27.1453796 27.14538023l-0.42414662 494.55488644z"
    fill="#5ec231" p-id="3018"></path>
  <path
    d="M737.66113233 679.32581725c-21.63147474-56.41149233-12.72439688-81.86028546-4.66561226-104.34005348l1.27243988-3.81731899c19.51074162-55.13905246 13.57269012-98.82614795 8.05878463-120.8817687 5.08975886-2.54487911 7.63463799-8.48293125 6.36219812-13.99683674-1.27243987-5.51390551-6.36219811-9.33122451-11.87610362-9.3312245H575.21300064c-6.78634474 0-12.30025026 5.51390551-12.30025026 12.30025025 0 6.78634474 5.51390551 12.30025026 12.30025026 12.30025024h4.66561224c7.63463799 25.02464711 15.69342262 61.50125059 10.60366375 76.34638061-18.66244837 54.29075923-17.39000911 131.90957969 2.96902637 162.87227831 7.21049136 11.02781036 0.84829324 81.01199284-2.12073311 97.12956145h25.44879374c2.96902574-19.51074162 8.48293125-93.73638908-2.54487978-110.70225159-14.42098274-22.05562073-17.81415575-89.91907008-0.42414661-140.81665694 7.63463799-22.05562073-1.27243987-61.50125059-8.05878461-84.40516521h110.70225156c4.66561224 16.54171587 12.72439688 58.53222486-5.9380515 111.1263982l-1.27243987 3.817319c-8.90707787 25.44879374-20.35903487 56.83563898 4.66561225 121.73006194 8.05878463 20.78318149-5.93805213 87.37419097-7.21049136 99.2502946h25.44879374c1.27243987-15.269276 14.42098274-85.25345783 5.51390488-108.58151845zM1216.52259611 690.77777425c19.93488823-31.81099186 22.05562073-107.30907921 2.96902576-162.87227831-5.08975886-14.84512935 2.96902574-51.7458801 10.60366439-76.34638061h5.08975823c6.78634474 0 12.30025026-5.51390551 12.30025027-12.30025024 0-6.78634474-5.51390551-12.30025026-12.30025027-12.30025025h-161.59983844c-4.66561224-2.54487911-10.17951713-1.69658651-13.99683612 1.69658651-3.81731899 3.39317238-5.08975886 8.90707787-3.39317238 13.57269011 1.69658651 4.66561224 6.36219811 8.05878463 11.45195702 8.05878462-5.51390551 22.05562073-11.451957 66.16686284 8.05878461 121.30591533l1.27243925 3.817319c8.05878463 22.47976738 17.39000911 47.92856111-4.24146499 104.34005346-8.90707787 23.32806062-10.60366373 101.37102707-8.90707786 116.64030307h25.02464646c-1.27243987-11.87610362-0.84829324-86.95004433 7.21049201-107.30907918 25.02464711-65.31857023 13.57269012-96.70541545 4.66561161-121.73006196l-1.27243923-3.39317239c-18.66244837-53.01831998-10.60366373-94.58468234-5.93805214-111.12639819h110.70225159c-6.36219811 22.90391399-15.69342262 62.34954382-8.05878461 84.40516521 17.81415575 51.32173348 12.72439688 117.91274295-0.42414662 140.81665694-22.05562073 39.02148325-1.69658651 97.12956145 0.84829324 116.21615709h25.44879373c-2.54487911-16.9658625-22.90391399-75.49808734-5.51390551-103.49176021z"
    fill="#5ec231" p-id="3019"></path>
</svg>
