<svg t="1640858212970" class="icon" viewBox="0 0 1024 1024" version="1.1" xmlns="http://www.w3.org/2000/svg"
     p-id="31404" width="200" height="200">
  <path
    d="M781.041526 702.256158c-16.83134 0-34.491559-1.680269-52.873208-5.064342-85.793992-15.801894-151.311171-82.962503-213.415624-152.277172-62.652945 69.642127-129.096217 136.478348-217.570247 152.294568-70.713528 12.640901-130.713041 0.388856-173.508729-35.43607-40.167838-33.624818-61.400419-85.202521-61.400419-149.156088 0-64.520479 21.726837-116.567879 62.833047-150.514015 43.171242-35.655058 102.770642-47.420009 172.33909-34.026978 87.798649 16.901948 154.213267 86.10303 217.33284 156.718321 62.184271-69.613474 127.35148-138.577149 212.878388-156.647713l0 0c67.512626-14.261818 128.272455-3.003404 171.080423 31.705096 41.557488 33.694403 64.444754 87.947028 64.444754 152.765289 0 64.296375-21.394263 116.095112-61.869093 149.797701C869.62198 688.800705 828.659033 702.256158 781.041526 702.256158zM541.569456 514.873444c60.654428 67.89125 119.423927 129.252783 193.847963 142.959969 58.313104 10.744715 106.824981 1.688455 140.287093-26.172079 31.04711-25.853831 47.458895-67.01837 47.458895-119.045303 0-53.279461-17.161868-95.356788-49.629327-121.68134-33.737382-27.353998-81.32112-35.529191-137.603984-23.635303C661.437497 383.037836 602.76112 446.251553 541.569456 514.873444zM243.962338 362.741581c-37.352723 0-69.124334 10.190083-93.373621 30.216185-31.596625 26.093285-48.296983 67.471694-48.296983 119.659287 0 51.728128 16.276708 92.695169 47.070039 118.471229 33.419134 27.975145 82.102926 37.217646 140.779304 26.728758 77.165474-13.795191 136.761803-74.853825 197.828624-142.966109C426.068885 445.440072 366.364085 382.095371 289.87911 367.369995 273.809109 364.277564 258.462586 362.741581 243.962338 362.741581z"
    p-id="31405"></path>
</svg>
