<svg t="1640857549260" class="icon" viewBox="0 0 1024 1024" version="1.1" xmlns="http://www.w3.org/2000/svg"
     p-id="27242" width="200" height="200">
  <path
    d="M327.68 858.112H107.52c-37.0688 0-67.3792-30.3104-67.3792-67.3792 0-37.0688 30.3104-67.3792 67.3792-67.3792h51.2c6.7584 0 12.0832-5.3248 12.0832-12.0832V494.7968c-37.0688-23.3472-59.8016-51.6096-69.0176-86.016-7.5776-27.8528-6.3488-58.7776 4.096-97.6896l0.2048-1.024c27.8528-74.9568 86.8352-125.952 170.1888-147.456 62.2592-15.9744 115.712-10.24 117.9648-9.8304l10.4448 1.2288-1.4336 10.4448c-0.2048 0.8192-12.0832 86.016-7.9872 173.6704 3.2768 73.5232 18.6368 163.0208 71.0656 186.368 7.168-46.8992 33.1776-219.136 47.104-330.1376 0.6144-5.5296 5.7344-9.6256 11.4688-8.8064 5.5296 0.6144 9.6256 5.7344 8.8064 11.4688-16.1792 129.024-48.7424 340.5824-48.9472 342.6304l-1.6384 11.0592-10.8544-2.6624c-58.9824-14.7456-91.7504-85.1968-97.4848-209.1008-3.2768-71.0656 3.6864-140.288 6.9632-166.2976-18.0224-0.8192-57.5488-1.024-100.7616 10.24-77.2096 20.0704-129.4336 65.1264-155.2384 134.144-14.336 54.272-18.432 115.9168 60.8256 163.4304l4.9152 3.072v227.9424c0 18.0224-14.5408 32.5632-32.5632 32.5632h-51.2c-25.8048 0-46.8992 21.0944-46.8992 46.8992S81.7152 837.632 107.52 837.632H327.68c5.7344 0 10.24 4.5056 10.24 10.24s-4.5056 10.24-10.24 10.24z"
    fill="" p-id="27243"></path>
  <path
    d="M651.264 858.112H414.5152c-37.0688 0-67.3792-30.3104-67.3792-67.3792 0-37.0688 30.3104-67.3792 67.3792-67.3792h73.9328c6.9632 0 12.4928-5.3248 12.6976-12.288 0.8192-45.2608 18.6368-150.7328 166.2976-150.7328 5.7344 0 10.24 4.5056 10.24 10.24s-4.5056 10.24-10.24 10.24c-124.7232 0-144.9984 81.92-145.8176 130.6624-0.2048 17.8176-15.1552 32.3584-33.1776 32.3584h-73.9328c-25.8048 0-46.8992 21.0944-46.8992 46.8992s21.0944 46.8992 46.8992 46.8992H651.264c129.2288 0 234.2912-105.0624 234.2912-234.2912 0-129.2288-105.0624-234.2912-234.2912-234.2912h-105.472c-5.7344 0-10.24-4.5056-10.24-10.24s4.5056-10.24 10.24-10.24H651.264c140.4928 0 254.7712 114.2784 254.7712 254.7712 0 140.4928-114.2784 254.7712-254.7712 254.7712z"
    fill="" p-id="27244"></path>
  <path
    d="M900.7104 735.8464c-2.8672 0-5.5296-0.2048-8.192-0.4096h-0.4096c-5.7344-0.4096-9.8304-5.3248-9.4208-11.0592 0.4096-5.7344 5.3248-9.8304 11.0592-9.4208h0.4096c2.4576 0.2048 4.5056 0.4096 6.5536 0.4096 33.1776 0 60.0064-26.8288 60.0064-60.0064 0-25.8048-16.384-48.7424-40.96-56.9344-5.3248-1.8432-8.192-7.5776-6.5536-12.9024 1.8432-5.3248 7.5776-8.192 12.9024-6.5536 32.768 10.8544 54.8864 41.5744 54.8864 76.1856 0.2048 44.6464-35.84 80.6912-80.2816 80.6912z"
    fill="" p-id="27245"></path>
  <path d="M246.1696 309.6576m-24.3712 0a24.3712 24.3712 0 1 0 48.7424 0 24.3712 24.3712 0 1 0-48.7424 0Z" fill=""
        p-id="27246"></path>
</svg>
