<svg t="1642056308219" class="icon" viewBox="0 0 1063 1024" version="1.1" xmlns="http://www.w3.org/2000/svg" p-id="4822"
     width="200" height="200">
  <path
    d="M778.830769 468.283077c-181.484308-147.692308-288.689231-244.499692-211.495384-371.003077 16.502154-26.978462 39.936-43.953231 69.474461-50.294154 57.580308-12.327385 123.549538 20.676923 151.945846 37.415385 46.158769-40.408615 118.941538-57.265231 173.174154-38.321231 48.128 16.856615 76.760615 58.289231 80.659692 116.775385 10.397538 152.772923-230.4 300.780308-240.679384 307.042461a20.086154 20.086154 0 0 1-23.079385-1.614769zM959.409231 582.025846a21.149538 21.149538 0 0 0-7.955693 2.323692l-356.903384 189.124924c-52.263385-15.950769-106.732308-33.358769-148.007385-47.300924a211.968 211.968 0 0 0 64.039385-36.233846h134.852923c4.056615 0 7.955692-1.181538 11.303385-3.465846 40.172308-27.254154 58.761846-55.296 55.138461-83.337846-5.159385-40.566154-54.193231-59.076923-59.746461-61.046154a18.983385 18.983385 0 0 0-5.632-1.142154l-462.690462-25.481846a61.479385 61.479385 0 0 0-58.289231-42.338461H53.169231a20.125538 20.125538 0 0 0-20.164923 20.164923c0 11.224615 8.979692 20.204308 20.164923 20.204307h72.349538c11.776 0 21.346462 9.570462 21.346462 21.267693v359.85723a21.267692 21.267692 0 0 1-21.346462 21.228308H53.169231a20.125538 20.125538 0 0 0-20.164923 20.204308c0 11.185231 8.979692 20.164923 20.164923 20.164923h72.349538c25.718154 0 47.773538-15.793231 56.989539-38.203077 77.193846 14.572308 356.548923 67.190154 389.789538 70.183385 3.465846 0.354462 6.813538 0.472615 10.161231 0.472615 39.227077 0 66.914462-20.440615 67.938461-21.267692l369.821539-268.012308a19.692308 19.692308 0 0 0 5.907692-6.813538c18.195692-33.595077 20.637538-61.164308 7.246769-81.801847-20.637538-31.744-68.529231-29.184-73.964307-28.750769z"
    fill="#F27574" p-id="4823"></path>
</svg>
