<svg t="1640857478555" class="icon" viewBox="0 0 1024 1024" version="1.1" xmlns="http://www.w3.org/2000/svg"
     p-id="26071" width="200" height="200">
  <path
    d="M403.8656 141.5168h4.9152c9.8304 0 18.0224 8.192 18.0224 18.0224v4.9152c0 9.8304-8.192 18.0224-18.0224 18.0224h-4.9152c-9.8304 0-18.0224-8.192-18.0224-18.0224v-4.9152c0-9.8304 7.9872-18.0224 18.0224-18.0224zM760.2176 749.1584H148.48c-42.8032 0-77.6192-34.816-77.6192-77.6192s34.816-77.6192 77.6192-77.6192h148.6848c5.7344 0 10.24 4.5056 10.24 10.24s-4.5056 10.24-10.24 10.24H148.48c-31.5392 0-57.1392 25.6-57.1392 57.1392 0 31.5392 25.6 57.1392 57.1392 57.1392h611.7376c5.7344 0 10.24 4.5056 10.24 10.24s-4.5056 10.24-10.24 10.24z"
    fill="" p-id="26072"></path>
  <path
    d="M560.7424 990.8224l45.2608-29.2864c124.1088-80.0768 144.9984-188.2112 145.2032-189.2352 1.024-5.5296 6.3488-9.216 11.8784-8.192 5.5296 1.024 9.216 6.3488 8.192 11.8784-0.8192 4.096-17.408 89.9072-107.7248 167.936 17.6128-6.3488 38.2976-14.9504 60.0064-26.2144 55.5008-28.672 129.024-80.6912 164.864-166.5024l2.4576-5.9392 6.3488-0.4096c2.4576-0.2048 63.0784-4.9152 66.7648-73.728-0.2048-31.3344-25.8048-56.9344-57.1392-56.9344H404.8896c-5.7344 0-10.24-4.5056-10.24-10.24s4.5056-10.24 10.24-10.24h502.1696c42.8032 0 77.6192 34.816 77.6192 77.6192v0.6144c-3.6864 72.9088-60.0064 89.088-79.4624 92.5696-30.9248 70.2464-90.5216 129.4336-172.6464 171.6224-63.2832 32.5632-116.736 43.4176-118.9888 43.8272l-52.8384 10.8544zM528.1792 457.9328c-2.6624 0-5.3248-1.024-7.168-3.072-4.096-4.096-4.096-10.4448 0-14.5408 19.6608-19.6608 30.5152-45.8752 30.5152-73.728 0-57.5488-46.6944-104.2432-104.2432-104.2432h-49.152c-50.7904 0-92.16-41.3696-92.16-92.16v-16.384c0-50.7904 41.3696-92.16 92.16-92.16 7.168 0 174.8992-0.8192 196.8128 0h1.024l1.024 0.2048c1.4336 0.4096 35.4304 9.216 69.632 39.1168 31.5392 27.4432 69.0176 78.848 69.0176 167.3216v61.44h-20.48l20.48 61.2352c0 5.7344-4.5056 10.24-10.24 10.24s-10.24-4.5056-10.24-10.24v-61.44c0-5.7344 4.5056-10.24 10.24-10.24 3.2768 0 6.3488 1.6384 8.192 4.096l-18.432-55.0912c0-64.7168-20.8896-115.9168-61.8496-151.9616-27.4432-23.9616-54.8864-32.768-60.2112-34.4064-25.8048-0.8192-193.1264 0-194.7648 0-39.5264 0-71.68 32.1536-71.68 71.68v16.384c0 39.5264 32.1536 71.68 71.68 71.68h49.152c68.8128 0 124.7232 55.9104 124.7232 124.7232 0 33.1776-12.9024 64.512-36.6592 88.064-2.048 2.4576-4.7104 3.4816-7.3728 3.4816z"
    fill="" p-id="26073"></path>
  <path
    d="M185.5488 560.3328c-3.4816 0-6.7584-1.8432-8.8064-4.9152-7.5776-12.4928-11.4688-26.624-11.4688-41.3696 0-41.7792 31.744-75.776 70.656-75.776h357.1712c5.7344 0 10.24 4.5056 10.24 10.24s-4.5056 10.24-10.24 10.24H235.9296c-27.648 0-50.176 24.7808-50.176 55.296 0 10.8544 2.8672 21.504 8.6016 30.72 2.8672 4.9152 1.4336 11.0592-3.4816 14.1312-1.6384 1.024-3.4816 1.4336-5.3248 1.4336zM869.7856 560.3328c-1.8432 0-3.6864-0.4096-5.3248-1.4336-4.9152-2.8672-6.3488-9.216-3.4816-14.1312 5.5296-9.216 8.6016-19.8656 8.6016-30.72 0-30.5152-22.528-55.296-50.176-55.296h-110.1824c-5.7344 0-10.24-4.5056-10.24-10.24s4.5056-10.24 10.24-10.24h110.1824c38.912 0 70.656 33.9968 70.656 75.776 0 14.7456-3.8912 28.8768-11.4688 41.3696-2.048 3.072-5.3248 4.9152-8.8064 4.9152z"
    fill="" p-id="26074"></path>
</svg>
