<svg t="1639979266693" class="icon" viewBox="0 0 1024 1024" version="1.1" xmlns="http://www.w3.org/2000/svg" p-id="1589" width="200" height="200"><path d="M584 923.8l-295-0.1c-0.4 0-49.8 3.1-74.8-29.3-20.7-26.9-20.7-73.6 0.1-135.2 67.7-200 255.8-244.4 356.2-238.8 109.2 5.9 153.2 52.3 153.8 53 6.6 7.3 17.8 7.9 25.2 1.4 7.4-6.6 8.1-17.9 1.5-25.3-1.7-1.9-36.1-39.5-117.2-56.9 83.3-32 142.7-112.6 142.7-207 0-122.3-99.5-221.9-221.9-221.9S333 163.2 333 285.6c0 94.2 59.1 174.7 142.1 206.8-108.3 21.6-238.7 90.2-294.6 255.3-25.3 74.7-23.4 131.5 5.7 168.8 30.7 39.5 81.3 43.1 98.4 43.1 3.5 0 5.6-0.1 5.8-0.2l293.7 0.1c9.9 0 17.9-8 17.9-17.9 0-9.7-8.1-17.8-18-17.8zM368.8 285.6c0-102.6 83.5-186 186-186s186 83.5 186 186-83.5 186-186 186-186-83.4-186-186z" fill="#ffffff" p-id="1590"></path><path d="M845.8 735.6H644.9c-9.9 0-17.9 8-17.9 17.9s8 17.9 17.9 17.9h200.9c9.9 0 17.9-8 17.9-17.9s-8-17.9-17.9-17.9z" fill="#ffffff" p-id="1591"></path></svg>
