<svg t="1640856646409" class="icon" viewBox="0 0 1024 1024" version="1.1" xmlns="http://www.w3.org/2000/svg" p-id="1583"
     width="200" height="200">
  <path
    d="M519.658935 673.068396c81.129762 0 157.397796-31.572066 214.762295-88.937588 118.423133-118.421087 118.423133-311.085084 0-429.507194C677.057755 97.259114 600.788697 65.668629 519.658935 65.668629c-81.128739 0-157.39882 31.590486-214.744899 88.954985-118.402667 118.42211-118.402667 311.086108 0 429.507194C362.279558 641.496329 438.548616 673.068396 519.658935 673.068396zM346.474594 196.183148c46.267766-46.266743 107.764376-71.734788 173.184341-71.734788 65.419965 0 126.937041 25.468045 173.203784 71.734788 95.499028 95.500051 95.499028 250.889097 0 346.389148-46.266743 46.245254-107.765399 71.713298-173.203784 71.713298-65.420989 0-126.916575-25.468045-173.184341-71.713298C250.995009 447.072245 250.995009 291.682175 346.474594 196.183148z"
    p-id="1584" fill="#db639b"></path>
  <path
    d="M793.986861 800.462854 549.061592 800.462854l0.008186-71.2743c0-16.22452-13.164834-29.389354-29.391401-29.389354s-29.389354 13.163811-29.389354 29.389354l-0.007163 71.2743L245.349429 800.462854c-16.225543 0-29.389354 13.163811-29.389354 29.390377s13.163811 29.392424 29.389354 29.392424l244.925269 0-0.00614 71.236438c0 16.22452 13.163811 29.389354 29.390377 29.389354s29.391401-13.163811 29.391401-29.389354l0.007163-71.236438L793.986861 859.245655c16.225543 0 29.391401-13.165858 29.391401-29.392424S810.213427 800.462854 793.986861 800.462854z"
    p-id="1585" fill="#db639b"></path>
</svg>
