<svg t="1643188942357" class="icon" viewBox="0 0 1464 1024" version="1.1" xmlns="http://www.w3.org/2000/svg"
     p-id="10048" width="200" height="200">
  <path
    d="M1260.088889 497.777778c0-118.044444-54.044444-228.977778-140.8-290.133334-1.422222-1.422222-14.222222-7.111111-24.177778-7.111111-24.177778 0-42.666667 22.755556-42.666667 49.777778 0 18.488889 7.111111 34.133333 19.911112 42.666667 61.155556 42.666667 99.555556 122.311111 99.555555 207.644444 0 86.755556-39.822222 166.4-105.244444 209.066667-12.8 9.955556-19.911111 24.177778-19.911111 41.244444 0 27.022222 18.488889 49.777778 42.666666 49.777778 8.533333 0 15.644444-4.266667 19.911111-5.688889h1.422223l4.266666-2.844444c89.6-62.577778 145.066667-174.933333 145.066667-294.4zM918.755556 384c-21.333333-18.488889-29.866667-38.4-28.444445-68.266667 1.422222-15.644444 0-31.288889 0-45.511111v-59.733333c0-71.111111-9.955556-108.088889-35.555555-123.733333-24.177778-17.066667-58.311111-12.8-115.2 11.377777-44.088889 18.488889-89.6 38.4-133.688889 56.888889-72.533333 31.288889-145.066667 61.155556-217.6 92.444445-110.933333 48.355556-200.533333 71.111111-287.288889 75.377777-56.888889 2.844444-96.711111 46.933333-99.555556 112.355556-1.422222 18.488889-1.422222 35.555556 0 52.622222v19.911111c0 115.2 27.022222 146.488889 128 155.022223 38.4 2.844444 51.2 19.911111 48.355556 61.155555-2.844444 49.777778 7.111111 102.4 32.711111 160.711111 35.555556 79.644444 79.644444 123.733333 140.8 137.955556 5.688889 1.422222 9.955556 1.422222 14.222222 1.422222 17.066667 0 29.866667-8.533333 35.555556-24.177778 8.533333-21.333333-1.422222-42.666667-24.177778-52.622222-83.911111-34.133333-103.822222-116.622222-119.466667-206.222222-7.111111-38.4-5.688889-49.777778-2.844444-52.622222 1.422222-1.422222 9.955556-1.422222 41.244444 11.377777 73.955556 29.866667 149.333333 61.155556 221.866667 92.444445 41.244444 17.066667 83.911111 35.555556 125.155555 52.622222 11.377778 5.688889 24.177778 9.955556 35.555556 15.644444 35.555556 15.644444 71.111111 31.288889 108.088889 41.244445 32.711111 8.533333 56.888889 7.111111 73.955555-7.111111 19.911111-14.222222 29.866667-42.666667 29.866667-85.333334v-14.222222c0-36.977778 1.422222-75.377778 0-113.777778-1.422222-39.822222 7.111111-65.422222 34.133333-88.177777 31.288889-28.444444 46.933333-65.422222 46.933334-105.244445-1.422222-39.822222-21.333333-78.222222-52.622222-103.822222z m-742.4 119.466667v21.333333c0 31.288889-8.533333 52.622222-22.755556 61.155556-11.377778 7.111111-29.866667 4.266667-49.777778-8.533334-29.866667-17.066667-41.244444-64-29.866666-123.733333 5.688889-34.133333 22.755556-52.622222 54.044444-56.888889 8.533333-1.422222 15.644444-1.422222 21.333333-1.422222 8.533333 0 15.644444 1.422222 18.488889 4.266666 7.111111 7.111111 8.533333 28.444444 9.955556 46.933334v28.444444l-1.422222 28.444445z m642.844444 257.422222c0 29.866667-4.266667 48.355556-9.955556 52.622222-5.688889 4.266667-21.333333 1.422222-44.088888-8.533333-142.222222-61.155556-285.866667-120.888889-429.511112-182.044445-45.511111-18.488889-68.266667-28.444444-78.222222-45.511111-9.955556-17.066667-9.955556-46.933333-9.955555-100.977778 0-81.066667 0-81.066667 64-106.666666l8.533333-2.844445c106.666667-42.666667 213.333333-89.6 317.155556-133.688889 39.822222-17.066667 81.066667-34.133333 120.888888-51.2 8.533333-4.266667 32.711111-14.222222 45.511112-14.222222 2.844444 0 4.266667 0 7.111111 1.422222 9.955556 7.111111 9.955556 48.355556 9.955555 61.155556v341.333333c0 61.155556 0 125.155556-1.422222 189.155556z"
    p-id="10049" fill="#D8AA86"></path>
  <path
    d="M1217.422222 9.955556c-7.111111-5.688889-15.644444-9.955556-25.6-9.955556-24.177778 0-42.666667 22.755556-42.666666 49.777778 0 17.066667 8.533333 34.133333 22.755555 44.088889C1289.955556 176.355556 1365.333333 331.377778 1365.333333 497.777778s-73.955556 321.422222-193.422222 405.333333c-15.644444 9.955556-24.177778 25.6-24.177778 44.088889 0 27.022222 18.488889 49.777778 42.666667 49.777778 12.8 0 21.333333-5.688889 27.022222-12.8C1362.488889 883.2 1452.088889 696.888889 1452.088889 497.777778c0-200.533333-91.022222-386.844444-234.666667-487.822222z"
    p-id="10050" fill="#D8AA86"></path>
</svg>
